<?xml version="1.0" encoding="UTF-8" standalone="no"?>
<svg
   xmlns:dc="http://purl.org/dc/elements/1.1/"
   xmlns:cc="http://creativecommons.org/ns#"
   xmlns:rdf="http://www.w3.org/1999/02/22-rdf-syntax-ns#"
   xmlns:svg="http://www.w3.org/2000/svg"
   xmlns="http://www.w3.org/2000/svg"
   xmlns:sodipodi="http://sodipodi.sourceforge.net/DTD/sodipodi-0.dtd"
   xmlns:inkscape="http://www.inkscape.org/namespaces/inkscape"
   inkscape:version="1.0 (6e3e5246a0, 2020-05-07)"
   sodipodi:docname="1.svg"
   id="svg6288"
   version="1.1"
   viewBox="0 0 210 297"
   height="297mm"
   width="210mm">
  <defs
     id="defs6282">
    <clipPath
       id="clipPath1824"
       clipPathUnits="userSpaceOnUse">
      <path
         id="path1822"
         d="m 3676.82,7717.67 c 49.31,83.88 77.7,181.53 77.7,285.86 0,312.11 -253.02,565.13 -565.14,565.13 -312.11,0 -565.13,-253.02 -565.13,-565.13 0,-104.33 28.39,-201.99 77.7,-285.87 -146.21,-132.72 -238.01,-324.28 -238.01,-537.29 0,-400.66 324.79,-725.46 725.45,-725.46 400.66,0 725.45,324.8 725.45,725.46 0,213.01 -91.81,404.58 -238.02,537.3" />
    </clipPath>
  </defs>
  <sodipodi:namedview
     inkscape:window-maximized="1"
     inkscape:window-y="27"
     inkscape:window-x="0"
     inkscape:window-height="713"
     inkscape:window-width="1366"
     showgrid="false"
     inkscape:document-rotation="0"
     inkscape:current-layer="layer1"
     inkscape:document-units="mm"
     inkscape:cy="662.283"
     inkscape:cx="522.605"
     inkscape:zoom="0.35"
     inkscape:pageshadow="2"
     inkscape:pageopacity="0.0"
     borderopacity="1.0"
     bordercolor="#666666"
     pagecolor="#ffffff"
     id="base" />
  <metadata
     id="metadata6285">
    <rdf:RDF>
      <cc:Work
         rdf:about="">
        <dc:format>image/svg+xml</dc:format>
        <dc:type
           rdf:resource="http://purl.org/dc/dcmitype/StillImage" />
        <dc:title></dc:title>
      </cc:Work>
    </rdf:RDF>
  </metadata>
  <g
     id="layer1"
     inkscape:groupmode="layer"
     inkscape:label="Слой 1">
    <g
       id="g1818"
       transform="matrix(0.15057325,0,0,-0.15057325,-373.82716,1277.0255)">
      <g
         clip-path="url(#clipPath1824)"
         id="g1820">
        <path
           id="path1826"
           style="fill:#c8c7c5;fill-opacity:1;fill-rule:nonzero;stroke:none"
           d="m 3461.35,7853.12 c -6.64,2.68 -13.28,5.24 -19.98,7.72 v 37.5 0 c 0,19.72 -13.65,36.16 -31.98,40.66 l 6.82,88.71 v 0 c 0,116.01 -110.88,210 -226.8,210 -116,0 -226.8,-93.99 -226.8,-210 l 6.82,-88.62 c -6.49,-1.57 -12.35,-4.54 -17.24,-8.73 -0.47,-0.41 -0.94,-0.83 -1.4,-1.25 -15.53,128.79 -14.11,372.23 124.27,372.23 14.8,0 31.19,-2.79 49.26,-8.8 49.35,15.17 92,21.93 128.83,21.93 257.52,0 229.77,-330.91 208.23,-432.54 v -27.27 c 0,-0.52 -0.01,-1.03 -0.03,-1.54" />
        <path
           id="path1828"
           style="fill:#c4967c;fill-opacity:1;fill-rule:nonzero;stroke:none"
           d="m 3189.39,6454.91 c -0.37,0 -0.75,0 -1.12,0.01 -0.2,0 -0.41,0 -0.61,0 -0.15,0 -0.35,0 -0.5,0 -0.25,0 -0.54,0 -0.79,0 -0.09,0 -0.2,0 -0.29,0 -0.32,0 -0.68,0 -1,0.01 -0.03,0 -0.03,0 -0.05,0 -92.83,0.55 -185.56,18.81 -272.72,54.78 v 0 c -0.09,0.03 -0.2,0.08 -0.29,0.12 -57.28,23.71 -110.85,54.56 -159.63,91.42 h 30.27 c 1.75,-0.54 3.62,-0.83 5.55,-0.83 h 45.71 c 7.5,-1.89 15.03,-2.83 22.34,-2.83 7.32,0 14.41,0.94 21.07,2.83 h 2.58 c -4.5,-21.1 -5.88,-36.64 -1.09,-36.64 0,0 23.14,0 60.9,0 l -0.09,-37.04 250.18,-0.04 263.6,0.04 -0.59,37.04 c 29.54,0 47.14,0 47.14,0 4.79,0 3.41,15.54 -1.09,36.64 h 2.58 c 6.66,-1.89 13.76,-2.83 21.07,-2.83 7.31,0 14.84,0.94 22.35,2.83 h 45.7 c 10.4,0 18.82,8.43 18.82,18.82 0,6.99 -3.81,13.08 -9.46,16.33 2.34,2.82 4.56,5.79 6.67,8.92 30.23,44.92 100.27,186.41 134.37,290.5 15.44,47.11 15.21,97.9 -0.7,144.86 -30.85,91.07 -89.79,282.6 -106.26,319.12 -31.16,67.9 -120.59,76.43 -236.95,108.07 l 0.33,9.7 -66.81,34.36 1.98,9.27 84.83,-43.63 -0.33,-9.63 c 116.31,-31.62 205.81,-40.27 236.95,-108.14 16.47,-36.52 75.41,-228.05 106.27,-319.12 15.9,-46.96 16.13,-97.75 0.69,-144.86 -34.1,-104.09 -104.15,-245.58 -134.37,-290.5 -2.13,-3.16 -4.42,-6.11 -6.78,-8.95 5.69,-3.24 9.57,-9.29 9.57,-16.3 0,-8.56 -5.75,-15.7 -13.57,-17.99 h 10.57 c -48.42,-36.59 -101.57,-67.25 -158.37,-90.9 -87.92,-36.52 -181.62,-55 -275.33,-55.43 -0.07,0 -0.16,0 -0.24,0 -0.27,0 -0.57,0 -0.84,0 -0.15,0 -0.3,0 -0.44,0 -0.23,0 -0.44,0 -0.67,0 -0.37,-0.01 -0.74,-0.01 -1.11,-0.01 0.01,0 0.02,0 0,0 m 117.89,1080.73 -17.03,7.85 v 6.51 87.77 c 43.68,30.23 83.78,75.45 100.8,125.29 0.02,0.04 0.03,0.08 0.04,0.12 0.03,0.06 0.05,0.13 0.07,0.19 0.01,0.03 0.02,0.06 0.03,0.09 0.06,0.17 0.12,0.35 0.18,0.53 0.24,0.71 0.47,1.44 0.71,2.15 v 0.01 c 3.31,10.32 5.63,20.84 6.77,31.44 0,0.02 0,0.04 0.01,0.06 0.18,1.76 0.34,3.53 0.47,5.29 0,0.12 0.01,0.22 0.02,0.33 0.01,0.23 0.03,0.48 0.04,0.71 0.01,0.02 0.01,0.04 0.01,0.06 0.04,0.62 0.07,1.24 0.1,1.86 0,0.02 0,0.04 0,0.06 0.06,1.21 0.11,2.42 0.13,3.63 0.03,1.03 0.04,2.07 0.04,3.1 v 0 c 23.06,0.16 41.7,18.87 41.7,41.97 v 6.18 c 6.7,-2.48 13.34,-5.04 19.98,-7.72 -0.65,-17.78 -12.44,-32.57 -28.54,-38.04 -2.51,-42.83 -6.06,-178.84 -122.56,-228.62 v -36.46 -0.42 l -2.97,-13.94 m -235.87,0.42 -3.21,15.04 18.03,9.27 2.42,-11.38 v -5.5 l -17.24,-7.43 m 17.24,60.67 c -62.4,36.3 -85.8,100.22 -95.18,151.7 19.29,-44.03 55.79,-83.47 95.18,-110.71 v -40.99" />
        <path
           id="path1830"
           style="fill:#f6c5b1;fill-opacity:1;fill-rule:nonzero;stroke:none"
           d="m 3321.67,7529.01 -31.42,14.48 v 108.26 h -201.6 v -108.26 l -31.54,-13.6 8.4,-283.2 h 23.14 v -43.41 h 201.6 v 43.41 h 23.02 l 8.4,282.32" />
        <path
           id="path1832"
           style="fill:#ee9578;fill-opacity:1;fill-rule:nonzero;stroke:none"
           d="m 3290.25,7550 -201.6,12.68 v 75.04 c 34.57,-23.9 71.36,-38.41 100.76,-38.41 29.42,0 66.25,14.53 100.84,38.46 V 7550" />
        <path
           id="path1834"
           style="fill:#ffffff;fill-opacity:1;fill-rule:nonzero;stroke:none"
           d="m 3324.49,7528.35 -7.5,-28.13 c -12.96,-37.14 -46.19,-97.87 -125.1,-97.87 -89.03,0 -122.99,77.32 -133.53,110.82 l -4.04,15.18 c -163.97,-61.6 -113.66,-575.11 -113.66,-575.11 l -1.03,-426.5 250.18,-0.04 263.6,0.04 -6.87,426.5 c 0,0 41.91,513.51 -122.05,575.11" />
        <path
           id="path1836"
           style="fill:#f1453b;fill-opacity:1;fill-rule:nonzero;stroke:none"
           d="m 3237.91,7416.23 -19.35,-37.06 h -58.89 l -18.8,37.06 48.52,39.66 48.52,-39.66" />
        <path
           id="path1838"
           style="fill:#e9eae9;fill-opacity:1;fill-rule:nonzero;stroke:none"
           d="m 3189.4,7455.89 -62,-65.28 -106.01,126.48 66.16,32.95 24.88,-23.03 76.97,-71.12" />
        <path
           id="path1840"
           style="fill:#e9eae9;fill-opacity:1;fill-rule:nonzero;stroke:none"
           d="m 3291.3,7550.01 -101.9,-94.11 62,-65.32 105.99,126.55 -66.09,32.88" />
        <path
           id="path1842"
           style="fill:#f1453b;fill-opacity:1;fill-rule:nonzero;stroke:none"
           d="m 3218.56,7370.31 23.97,-771.78 -53.14,-58.75 -53.14,58.75 23.42,771.78 h 58.89" />
        <path
           id="path1844"
           style="fill:#3c3948;fill-opacity:1;fill-rule:nonzero;stroke:none"
           d="m 3740.97,6934.99 c 15.44,47.11 15.21,97.9 -0.7,144.86 -30.85,91.07 -89.79,282.6 -106.26,319.12 -36.96,80.56 -155.98,77.55 -304.66,128.71 -5.29,1.85 -10.67,3.7 -16.05,5.63 h -0.01 c -8.74,-51.06 -123.9,-544.66 -123.9,-544.66 0,0 -115.16,493.6 -123.9,544.65 l -0.01,0.01 c -5.38,-1.93 -10.76,-3.78 -16.05,-5.63 -148.68,-51.16 -267.7,-48.15 -304.66,-128.71 -16.47,-36.51 -75.4,-228.02 -106.26,-319.09 -15.91,-46.98 -16.14,-97.79 -0.7,-144.92 34.11,-104.09 104.15,-245.56 134.37,-290.47 26.9,-39.98 73.91,-54.46 107.92,-43.22 -4.65,-21.53 -6.13,-37.49 -1.28,-37.49 0,0 150.78,0 310.55,0 l 0.02,2.02 0.02,-2.02 c 159.77,0 310.55,0 310.55,0 4.85,0 3.37,15.96 -1.28,37.49 34.01,-11.24 81.02,3.24 107.92,43.22 30.23,44.92 100.27,186.41 134.37,290.5" />
        <path
           id="path1846"
           style="fill:#484547;fill-opacity:1;fill-rule:nonzero;stroke:none"
           d="m 2981.4,7516.74 3.28,-96.32 48.1,-39.58 -37.43,-51.17 192.77,-341.02 -121.89,571.72 -84.83,-43.63" />
        <path
           id="path1848"
           style="fill:#484547;fill-opacity:1;fill-rule:nonzero;stroke:none"
           d="m 3397.39,7516.74 -3.29,-96.32 -48.1,-39.58 37.43,-51.17 -192.77,-341.02 121.89,571.72 84.84,-43.63" />
        <path
           id="path1850"
           style="fill:#f6c5b1;fill-opacity:1;fill-rule:nonzero;stroke:none"
           d="m 3409.39,7939 6.82,88.71 c 0,116.01 -110.88,210 -226.8,210 -116,0 -226.8,-93.99 -226.8,-210 l 6.82,-88.62 c -6.49,-1.57 -12.35,-4.54 -17.24,-8.73 -9.07,-7.73 -14.78,-19.15 -14.78,-32.01 v -43.68 c 0,-23.09 18.6,-41.83 41.74,-41.97 0,-109.55 131.62,-213.39 210.26,-213.39 78.64,0 210.26,103.83 210.26,213.38 23.06,0.16 41.7,18.87 41.7,41.97 v 43.68 c 0,19.72 -13.65,36.16 -31.98,40.66" />
        <path
           id="path1852"
           style="fill:#c0785d;fill-opacity:1;fill-rule:nonzero;stroke:none"
           d="m 3391.05,7763.06 c 0.02,0.04 0.03,0.08 0.04,0.12 -0.01,-0.04 -0.02,-0.08 -0.04,-0.12 m 0.11,0.31 c 0.01,0.03 0.02,0.06 0.03,0.09 -0.01,-0.03 -0.02,-0.06 -0.03,-0.09 m 0.21,0.62 c 0.24,0.72 0.47,1.43 0.71,2.15 -0.24,-0.71 -0.47,-1.44 -0.71,-2.15 m 0.71,2.16 c 3.31,10.32 5.62,20.84 6.77,31.44 -1.14,-10.6 -3.46,-21.12 -6.77,-31.44 m 6.78,31.5 c 0.18,1.76 0.34,3.53 0.47,5.29 -0.13,-1.76 -0.29,-3.53 -0.47,-5.29 m 0.49,5.62 c 0.01,0.23 0.03,0.48 0.04,0.71 -0.01,-0.23 -0.03,-0.48 -0.04,-0.71 m 0.05,0.77 c 0.04,0.62 0.07,1.24 0.1,1.86 -0.03,-0.62 -0.06,-1.24 -0.1,-1.86 m 0.1,1.92 c 0.06,1.21 0.11,2.42 0.13,3.63 -0.02,-1.21 -0.07,-2.42 -0.13,-3.63" />
        <path
           id="path1854"
           style="fill:#ef9e83;fill-opacity:1;fill-rule:nonzero;stroke:none"
           d="m 3189.38,7599.32 v 180.59 h -50.4 c 0,0 19.76,94.44 50.4,159.6 l 0.03,298.2 c 115.92,0 226.8,-93.99 226.8,-210 l -6.82,-88.71 v 0 c 18.33,-4.5 31.98,-20.94 31.98,-40.66 v -43.68 c 0,-23.1 -18.64,-41.81 -41.7,-41.97 v 0 c 0,-1.03 -0.01,-2.07 -0.04,-3.1 -0.02,-1.21 -0.07,-2.42 -0.13,-3.63 0,-0.02 0,-0.04 0,-0.06 -0.03,-0.62 -0.06,-1.24 -0.1,-1.86 0,-0.02 0,-0.04 -0.01,-0.06 -0.01,-0.23 -0.03,-0.48 -0.04,-0.71 -0.01,-0.11 -0.02,-0.21 -0.02,-0.33 -0.13,-1.76 -0.29,-3.53 -0.47,-5.29 -0.01,-0.02 -0.01,-0.04 -0.01,-0.06 -1.15,-10.6 -3.46,-21.12 -6.77,-31.44 0,0 0,0 0,-0.01 -0.24,-0.72 -0.47,-1.43 -0.71,-2.15 -0.06,-0.19 -0.12,-0.35 -0.18,-0.53 -0.01,-0.03 -0.02,-0.06 -0.03,-0.09 -0.02,-0.06 -0.04,-0.13 -0.07,-0.19 -0.01,-0.04 -0.02,-0.08 -0.04,-0.12 -30.49,-89.3 -135.04,-163.73 -201.67,-163.74 m 97.36,323.84 c -0.39,0 -0.79,-0.01 -1.18,-0.02 -18.31,-0.64 -32.63,-16 -31.99,-34.31 0.62,-17.92 15.34,-32.02 33.13,-32.02 0.39,0 0.78,0.01 1.18,0.02 18.31,0.64 32.63,16 31.99,34.31 -0.62,17.92 -15.34,32.02 -33.13,32.02" />
        <path
           id="path1856"
           style="fill:#ef9677;fill-opacity:1;fill-rule:nonzero;stroke:none"
           d="m 3093.5,7856.81 c -17.79,0 -32.51,14.1 -33.14,32.02 -0.63,18.31 13.69,33.67 32,34.31 0.4,0.01 0.79,0.02 1.18,0.02 17.79,0 32.51,-14.1 33.13,-32.02 0.64,-18.31 -13.68,-33.67 -31.99,-34.31 -0.4,-0.01 -0.79,-0.02 -1.18,-0.02" />
        <path
           id="path1858"
           style="fill:#352018;fill-opacity:1;fill-rule:nonzero;stroke:none"
           d="m 3126.67,7899.54 c 0.64,-18.31 -13.68,-33.67 -31.99,-34.31 -18.31,-0.64 -33.68,13.69 -34.32,32 -0.63,18.31 13.69,33.67 32,34.31 18.31,0.64 33.67,-13.69 34.31,-32" />
        <path
           id="path1860"
           style="fill:#ffffff;fill-opacity:1;fill-rule:nonzero;stroke:none"
           d="m 3113.07,7883.83 c 0.16,-4.58 -3.42,-8.42 -8,-8.58 -4.58,-0.16 -8.42,3.42 -8.58,8 -0.16,4.58 3.42,8.42 8,8.58 4.58,0.16 8.42,-3.43 8.58,-8" />
        <path
           id="path1862"
           style="fill:#e87659;fill-opacity:1;fill-rule:nonzero;stroke:none"
           d="m 3286.7,7856.81 c -17.79,0 -32.51,14.1 -33.13,32.02 -0.64,18.31 13.68,33.67 31.99,34.31 0.39,0.01 0.79,0.02 1.18,0.02 17.79,0 32.51,-14.1 33.13,-32.02 0.64,-18.31 -13.68,-33.67 -31.99,-34.31 -0.4,-0.01 -0.79,-0.02 -1.18,-0.02" />
        <path
           id="path1864"
           style="fill:#352018;fill-opacity:1;fill-rule:nonzero;stroke:none"
           d="m 3319.87,7899.54 c 0.64,-18.31 -13.68,-33.67 -31.99,-34.31 -18.31,-0.64 -33.68,13.69 -34.31,32 -0.64,18.31 13.68,33.67 31.99,34.31 18.31,0.64 33.67,-13.69 34.31,-32" />
        <path
           id="path1866"
           style="fill:#ffffff;fill-opacity:1;fill-rule:nonzero;stroke:none"
           d="m 3306.27,7883.83 c 0.16,-4.58 -3.42,-8.42 -8,-8.58 -4.58,-0.16 -8.42,3.42 -8.58,8 -0.16,4.58 3.42,8.42 8,8.58 4.58,0.16 8.42,-3.43 8.58,-8" />
        <path
           id="path1868"
           style="fill:#48342b;fill-opacity:1;fill-rule:nonzero;stroke:none"
           d="m 3386.96,7834.99 c 0,-27.55 -16.94,-68.34 -40.98,-86.42 -10.33,-7.77 -24.14,-9.05 -36.03,-3.97 -20.04,8.57 -64.81,16.25 -120.26,16.25 -55.44,0 -100.21,-7.68 -120.25,-16.25 -11.89,-5.08 -25.7,-3.8 -36.03,3.97 -24.04,18.08 -40.98,58.87 -40.98,86.42 0,0 -33.46,120.66 -8.3,209.32 12.46,43.88 66.26,68.6 110.52,57.53 32.13,-8.05 65.49,-10.72 95.04,-10.79 29.56,0.07 62.91,2.74 95.05,10.79 44.26,11.07 98.06,-13.65 110.52,-57.53 25.16,-88.66 -8.3,-209.32 -8.3,-209.32 z m -282.64,457.55 c -227.42,75.6 -183.76,-358.86 -161.16,-431.17 4.11,-13.23 21.8,-33.61 21.88,-33.61 6.89,-12.9 -18.23,-259.85 224.65,-259.85 242.89,0 217.77,246.95 224.66,259.85 0.08,0 17.77,20.38 21.88,33.61 22.6,72.31 91.67,561.37 -331.91,431.17" />
        <path
           id="path1870"
           style="fill:#f6c5b1;fill-opacity:1;fill-rule:nonzero;stroke:none"
           d="m 3134.51,7721.31 h 109.85 c 3.47,0 5.22,-4.3 2.65,-6.63 -7.87,-7.12 -24.91,-17.43 -57.57,-17.43 -32.67,0 -49.7,10.31 -57.57,17.43 -2.58,2.33 -0.83,6.63 2.64,6.63" />
        <path
           id="path1872"
           style="fill:#3d3a48;fill-opacity:1;fill-rule:nonzero;stroke:none"
           d="m 3309.37,7839.8 c -60.14,0 -79.41,13.52 -89.64,62.91 -2.29,11.02 -0.43,20.31 5.5,27.6 8.4,10.32 29.81,22.62 84.14,22.62 78.75,0 78.75,-39.08 78.75,-51.93 0,-36.96 -5.48,-61.2 -78.75,-61.2 z m -164.26,62.91 c -10.23,-49.39 -29.5,-62.91 -89.64,-62.91 -73.27,0 -78.75,24.24 -78.75,61.2 0,12.85 0,51.93 78.75,51.93 54.33,0 75.74,-12.3 84.14,-22.62 5.94,-7.29 7.79,-16.58 5.5,-27.6 z m 272.35,54.68 H 3372 c -14.37,7.53 -34.48,12.34 -62.63,12.34 -46.8,0 -78.57,-8.97 -94.87,-26.49 -7.71,4.24 -19.22,9.06 -32.24,9.06 -12.9,0 -24.32,-4.73 -32.03,-8.94 -16.34,17.43 -48.06,26.37 -94.76,26.37 -28.15,0 -48.26,-4.81 -62.62,-12.34 h -45.79 v -32.74 l 15.03,-5.28 c -1.54,-6.14 -2.17,-12.36 -2.17,-18.37 0,-49.4 15.64,-78 95.55,-78 67.5,0 94.27,19.26 106.09,76.29 1.45,6.98 1.6,13.63 0.64,19.88 3.73,2.38 9.88,4.47 20.06,4.47 10.43,0 16.66,-2.19 20.36,-4.66 -0.94,-6.19 -0.77,-12.77 0.66,-19.69 11.82,-57.03 38.59,-76.29 106.09,-76.29 79.91,0 95.55,28.6 95.55,78 0,6.04 -0.64,12.3 -2.2,18.48 l 14.74,5.17 v 32.74" />
        <path
           id="path1874"
           style="fill:#605f6e;fill-opacity:1;fill-rule:nonzero;stroke:none"
           d="M 3716.78,6601.25 H 2662 c -41.75,0 -75.6,-33.84 -75.6,-75.6 0,-41.75 33.85,-75.6 75.6,-75.6 h 1054.78 c 41.75,0 75.6,33.85 75.6,75.6 0,41.76 -33.85,75.6 -75.6,75.6" />
        <path
           id="path1876"
           style="fill:#abaaaa;fill-opacity:1;fill-rule:nonzero;stroke:none"
           d="m 3590.57,6600.42 h -802.36 c -10.4,0 -18.82,8.43 -18.82,18.82 0,10.39 8.42,18.82 18.82,18.82 h 802.36 c 10.4,0 18.82,-8.43 18.82,-18.82 0,-10.39 -8.42,-18.82 -18.82,-18.82" />
        <path
           id="path1878"
           style="fill:#e3e3e2;fill-opacity:1;fill-rule:nonzero;stroke:none"
           d="m 3559.39,6636.7 h -740 c -27.61,0 -50,22.39 -50,50 v 509.81 c 0,27.61 22.39,50 50,50 h 740 c 27.61,0 50,-22.39 50,-50 V 6686.7 c 0,-27.61 -22.39,-50 -50,-50" />
        <path
           id="path1880"
           style="fill:#f3f3f3;fill-opacity:1;fill-rule:nonzero;stroke:none"
           d="m 3189.39,6892.28 c -37.93,0 -68.69,30.75 -68.69,68.69 0,37.93 30.76,68.68 68.69,68.68 37.93,0 68.68,-30.75 68.68,-68.68 0,-37.94 -30.75,-68.69 -68.68,-68.69" />
        <path
           id="path1882"
           style="fill:#605f6e;fill-opacity:1;fill-rule:nonzero;stroke:none"
           d="m 2807.77,6638.06 h -13.07 c -14.62,4.2 -25.31,17.67 -25.31,33.64 v 15 c 0,-23.61 16.37,-43.4 38.38,-48.64 m -38.38,558.45 v 15 c 0,19.33 15.67,35 35,35 h 15 c -27.61,0 -50,-22.39 -50,-50" />
        <path
           id="path1884"
           style="fill:#bcbbbb;fill-opacity:1;fill-rule:nonzero;stroke:none"
           d="m 2925.41,6636.7 h -121.02 c -3.36,0 -6.61,0.47 -9.69,1.36 h 13.07 c 3.73,-0.89 7.62,-1.36 11.62,-1.36 h 106.02 v 0" />
        <path
           id="path1886"
           style="fill:#eae9e8;fill-opacity:1;fill-rule:nonzero;stroke:none"
           d="m 2925.41,6636.7 h -106.02 c -4,0 -7.89,0.47 -11.62,1.36 -22.01,5.24 -38.38,25.03 -38.38,48.64 v 509.81 c 0,27.61 22.39,50 50,50 h 598.98 c -267.89,-79.44 -468.2,-319.17 -492.96,-609.81" />
      </g>
    </g>
  </g>
</svg>
