<?xml version="1.0" encoding="UTF-8" standalone="no"?>
<svg
   xmlns:dc="http://purl.org/dc/elements/1.1/"
   xmlns:cc="http://creativecommons.org/ns#"
   xmlns:rdf="http://www.w3.org/1999/02/22-rdf-syntax-ns#"
   xmlns:svg="http://www.w3.org/2000/svg"
   xmlns="http://www.w3.org/2000/svg"
   xmlns:sodipodi="http://sodipodi.sourceforge.net/DTD/sodipodi-0.dtd"
   xmlns:inkscape="http://www.inkscape.org/namespaces/inkscape"
   inkscape:version="1.0 (6e3e5246a0, 2020-05-07)"
   sodipodi:docname="2.svg"
   id="svg6288"
   version="1.1"
   viewBox="0 0 210 297"
   height="297mm"
   width="210mm">
  <defs
     id="defs6282">
    <clipPath
       id="clipPath1824"
       clipPathUnits="userSpaceOnUse">
      <path
         id="path1822"
         d="m 3676.82,7717.67 c 49.31,83.88 77.7,181.53 77.7,285.86 0,312.11 -253.02,565.13 -565.14,565.13 -312.11,0 -565.13,-253.02 -565.13,-565.13 0,-104.33 28.39,-201.99 77.7,-285.87 -146.21,-132.72 -238.01,-324.28 -238.01,-537.29 0,-400.66 324.79,-725.46 725.45,-725.46 400.66,0 725.45,324.8 725.45,725.46 0,213.01 -91.81,404.58 -238.02,537.3" />
    </clipPath>
    <clipPath
       id="clipPath608"
       clipPathUnits="userSpaceOnUse">
      <path
         id="path606"
         d="m 1772.53,2537.02 c 49.3,83.88 77.69,181.54 77.69,285.87 0,312.11 -253.02,565.13 -565.13,565.13 -312.113,0 -565.129,-253.02 -565.129,-565.13 0,-104.34 28.387,-201.99 77.691,-285.88 C 651.449,2404.3 559.641,2212.73 559.641,1999.7 c 0,-400.6 324.797,-725.4 725.459,-725.4 400.65,0 725.45,324.8 725.45,725.4 0,213.04 -91.81,404.6 -238.02,537.32" />
    </clipPath>
  </defs>
  <sodipodi:namedview
     inkscape:window-maximized="1"
     inkscape:window-y="27"
     inkscape:window-x="0"
     inkscape:window-height="713"
     inkscape:window-width="1366"
     showgrid="false"
     inkscape:document-rotation="0"
     inkscape:current-layer="layer1"
     inkscape:document-units="mm"
     inkscape:cy="662.283"
     inkscape:cx="522.605"
     inkscape:zoom="0.35"
     inkscape:pageshadow="2"
     inkscape:pageopacity="0.0"
     borderopacity="1.0"
     bordercolor="#666666"
     pagecolor="#ffffff"
     id="base" />
  <metadata
     id="metadata6285">
    <rdf:RDF>
      <cc:Work
         rdf:about="">
        <dc:format>image/svg+xml</dc:format>
        <dc:type
           rdf:resource="http://purl.org/dc/dcmitype/StillImage" />
        <dc:title></dc:title>
      </cc:Work>
    </rdf:RDF>
  </metadata>
  <g
     id="layer1"
     inkscape:groupmode="layer"
     inkscape:label="Слой 1">
    <g
       id="g602"
       transform="matrix(0.16065423,0,0,-0.16065423,-101.95834,508.6704)">
      <g
         clip-path="url(#clipPath608)"
         id="g604">
        <path
           id="path610"
           style="fill:#c8c7c5;fill-opacity:1;fill-rule:nonzero;stroke:none"
           d="m 1575.61,2664.68 c -7.04,3.07 -14.11,6.02 -21.22,8.86 -13.82,97.13 -39.28,181.84 -78.12,231.18 -3.46,4.45 -7.08,8.65 -10.79,12.52 -9.31,9.64 -19.03,19.03 -29.49,27.77 -39.88,33.86 -89.89,59.56 -162.88,59.56 -28.45,0 -53.41,-3.9 -75.63,-10.65 34.63,15.59 70.91,23.15 105.12,23.15 54.72,0 104.15,-19.37 132.95,-56.23 7.11,-5.02 13.92,-10.3 20.44,-15.83 10.46,-8.74 20.18,-18.13 29.49,-27.77 3.71,-3.87 7.33,-8.07 10.8,-12.52 40.01,-50.83 65.82,-139.22 79.33,-240.04" />
        <path
           id="path612"
           style="fill:#64a0ba;fill-opacity:1;fill-rule:nonzero;stroke:none"
           d="m 1285.1,1274.3 c -2.69,0 -5.42,0 -8.1,0 -0.09,0 -0.16,0 -0.25,0 -0.22,0 -0.44,0 -0.66,0 -0.27,0 -0.49,0 -0.76,0 -0.03,0 -0.03,0 -0.05,0 -90.58,1.3 -180.96,19.3 -266.05,54.3 -57.839,23.8 -111.941,54.8 -161.136,92 h 25.426 c 2.98,-2 6.55,-3.1 10.394,-3.1 h 802.366 c 10.39,0 18.81,8.4 18.81,18.8 0,10.4 -8.42,18.8 -18.81,18.8 h -19.55 c 22,5.3 38.36,25.1 38.36,48.7 v 44 l 69.02,143.7 c 25.5,42.3 28.94,94.4 9.19,139.7 -18.36,42.1 -47.33,99.1 -78.21,155.5 v 26.87 c 0,25.31 -18.8,46.23 -43.2,49.54 -35.96,61.39 -69.04,112.25 -85.41,127.96 -11.41,10.95 -23.17,19.74 -35.17,26.84 27.98,124.65 34.51,305.06 13.08,455.63 7.11,-2.84 14.18,-5.79 21.22,-8.86 19.94,-148.75 13.12,-324.57 -14.33,-446.78 12.01,-7.1 23.79,-15.88 35.2,-26.83 16.39,-15.72 49.53,-66.71 85.54,-128.2 24.31,-3.4 43.08,-24.06 43.08,-49.3 v -26.87 c 30.87,-56.4 59.84,-113.4 78.19,-155.5 19.75,-45.3 16.32,-97.4 -9.18,-139.7 l -69.01,-143.7 v -44 c 0,-23.8 -16.61,-43.6 -38.82,-48.7 h 20 c 10.39,0 18.82,-8.4 18.82,-18.8 0,-6.6 -3.37,-12.3 -8.46,-15.7 h 5.46 c -48.98,-37 -102.78,-67.9 -160.33,-91.7 -85.6,-35.3 -176.56,-53.5 -267.7,-54.6 -0.2,0 -0.4,0 -0.59,0 -0.09,0 -0.23,0 -0.32,0 -2.68,0 -5.37,0 -8.06,0" />
        <path
           id="path614"
           style="fill:#48342b;fill-opacity:1;fill-rule:nonzero;stroke:none"
           d="m 1540.87,2215.95 c -0.33,-1.89 -0.74,-3.54 -1.16,-5.27 -4.2,-17.96 -8.89,-34.69 -14,-49.93 -8.82,-26.28 -18.21,-48.03 -30.16,-64.34 -5.52,-7.66 -11.7,-14.09 -18.62,-19.28 -13.26,-9.97 -29.49,-15.24 -50.09,-15.24 h -307.47 c -21.5,0 -38.23,5.77 -51.82,16.56 -6.26,4.94 -11.79,10.95 -16.89,17.96 -11.95,16.31 -21.34,38.06 -30.16,64.34 -5.1,15.24 -9.8,31.97 -14,49.93 -0.41,1.73 -0.83,3.38 -1.16,5.11 -48.195,212.15 -33.86,588.17 75.39,701.45 44.82,46.47 100.26,87.33 192.38,87.33 72.99,0 123,-25.7 162.88,-59.56 10.46,-8.74 20.18,-18.13 29.49,-27.77 3.71,-3.87 7.33,-8.07 10.79,-12.52 99.36,-126.22 111.15,-484.03 64.6,-688.77" />
        <path
           id="path616"
           style="fill:#f6c5b1;fill-opacity:1;fill-rule:nonzero;stroke:none"
           d="m 1369.1,2245.82 v 107.14 h -168 v -107.14 l -42,-3.26 42,-270.86 h 168 l 41.99,270.86 -41.99,3.26" />
        <path
           id="path618"
           style="fill:#462920;fill-opacity:1;fill-rule:nonzero;stroke:none"
           d="m 1201.1,2313.32 v 0 24.89 -24.89" />
        <path
           id="path620"
           style="fill:#ee9578;fill-opacity:1;fill-rule:nonzero;stroke:none"
           d="m 1369.1,2245.82 -168,67.5 v 24.89 c 28.66,-21.54 59.71,-35.12 88.24,-35.12 v 0 c 25.73,0 53.52,11.05 79.76,29.03 v -86.3" />
        <path
           id="path622"
           style="fill:#3d3a48;fill-opacity:1;fill-rule:nonzero;stroke:none"
           d="m 1783.3,1831.2 c -48.29,110.8 -169.96,324.49 -206.82,359.87 -60.08,57.66 -129.96,55.62 -193.29,60.44 0,0 -0.12,-0.99 -0.34,-2.68 l -97.75,-267.43 -97.76,267.43 c -0.22,1.69 -0.34,2.68 -0.34,2.68 -63.33,-4.82 -133.21,-2.78 -193.289,-60.44 C 956.848,2155.69 835.18,1942 786.895,1831.2 c -19.75,-45.3 -16.309,-97.4 9.187,-139.7 L 919.793,1434 h 68.727 268.57 1.33 l 26.68,100.8 26.67,-100.8 h 1.34 268.56 68.73 l 123.71,257.5 c 25.5,42.3 28.94,94.4 9.19,139.7" />
        <path
           id="path624"
           style="fill:#ffffff;fill-opacity:1;fill-rule:nonzero;stroke:none"
           d="m 1090.99,2184.02 92.08,-34.82 -36.15,-50.4 138.18,-116.6 -98.1,270.16 -96.01,-68.34" />
        <path
           id="path626"
           style="fill:#ffffff;fill-opacity:1;fill-rule:nonzero;stroke:none"
           d="m 1479.21,2184.02 -96.16,67.2 -97.95,-269.02 138.18,116.6 -36.15,50.4 92.08,34.82" />
        <path
           id="path628"
           style="fill:#f6c5b1;fill-opacity:1;fill-rule:nonzero;stroke:none"
           d="m 1481.77,2644.13 v 87.37 c 0,92.78 -107.41,210 -192.43,210 -85.02,0 -192.44,-117.22 -192.44,-210 v -87.37 c -23.62,0 -42.76,-18.8 -42.76,-42 v -43.68 c 0,-23.19 19.14,-41.99 42.76,-41.99 0,-92.79 107.42,-213.37 192.44,-213.37 85.02,0 192.43,120.58 192.43,213.37 23.62,0 42.77,18.8 42.77,41.99 v 43.68 c 0,23.2 -19.15,42 -42.77,42" />
        <path
           id="path630"
           style="fill:#ef9e83;fill-opacity:1;fill-rule:nonzero;stroke:none"
           d="m 1289.34,2303.09 v 155.4 l -42.77,8.4 c 0,0 11.57,69.24 42.77,134.41 v 340.2 c 85.02,0 192.43,-117.22 192.43,-210 v -87.37 0 c 23.62,0 42.77,-18.8 42.77,-42 v -43.68 c 0,-23.19 -19.15,-41.99 -42.77,-41.99 0,-92.79 -107.41,-213.37 -192.43,-213.37 m 99.74,315.98 c -0.39,0 -0.79,-0.01 -1.18,-0.02 -18.31,-0.64 -32.64,-16 -32,-34.32 0.63,-17.91 15.35,-32.01 33.14,-32.01 0.39,0 0.78,0 1.18,0.02 18.31,0.64 32.63,16 31.99,34.31 -0.62,17.92 -15.34,32.02 -33.13,32.02" />
        <path
           id="path632"
           style="fill:#ee9578;fill-opacity:1;fill-rule:nonzero;stroke:none"
           d="m 1179.04,2552.72 c -17.79,0 -32.51,14.1 -33.14,32.01 -0.64,18.32 13.69,33.68 32,34.32 0.4,0.01 0.79,0.02 1.18,0.02 17.79,0 32.51,-14.1 33.13,-32.02 0.64,-18.31 -13.68,-33.67 -31.99,-34.31 -0.4,-0.02 -0.79,-0.02 -1.18,-0.02" />
        <path
           id="path634"
           style="fill:#352018;fill-opacity:1;fill-rule:nonzero;stroke:none"
           d="m 1212.21,2595.45 c 0.64,-18.31 -13.68,-33.67 -31.99,-34.31 -18.31,-0.64 -33.68,13.68 -34.32,31.99 -0.64,18.32 13.69,33.68 32,34.32 18.31,0.64 33.67,-13.69 34.31,-32" />
        <path
           id="path636"
           style="fill:#ffffff;fill-opacity:1;fill-rule:nonzero;stroke:none"
           d="m 1198.61,2604.93 c 0.16,-4.57 -3.42,-8.41 -8,-8.57 -4.58,-0.16 -8.42,3.42 -8.58,8 -0.16,4.57 3.42,8.41 8,8.57 4.58,0.16 8.42,-3.42 8.58,-8" />
        <path
           id="path638"
           style="fill:#352018;fill-opacity:1;fill-rule:nonzero;stroke:none"
           d="m 1219.41,2620.79 c -6.12,14.22 -21.8,24.99 -39.02,26.83 -10.56,1.15 -30.37,-0.42 -47.39,-21.97 -0.81,-0.07 -1.57,-0.08 -2.51,0.01 -1.9,0.17 -4.53,0.79 -7.1,1.88 -5.22,2.1 -9.57,6.51 -9.57,6.51 l -1.19,0.2 -0.48,-1.39 c 0,0 0.65,-1.44 1.91,-3.51 1.23,-2.09 3.17,-4.78 5.64,-7.14 2.45,-2.37 5.37,-4.39 7.83,-5.61 1.22,-0.62 2.33,-1.06 3.15,-1.35 l 1.48,-0.41 c 2.29,-0.24 4.37,0.99 5.37,2.91 11.15,15.57 26.06,23.23 41.97,21.52 14.07,-1.5 27.31,-10.47 32.19,-21.8 0.93,-2.14 3.4,-3.12 5.52,-2.2 2.13,0.92 3.12,3.39 2.2,5.52" />
        <path
           id="path640"
           style="fill:#e77658;fill-opacity:1;fill-rule:nonzero;stroke:none"
           d="m 1389.04,2552.72 c -17.79,0 -32.51,14.1 -33.14,32.01 -0.64,18.32 13.69,33.68 32,34.32 0.39,0.01 0.79,0.02 1.18,0.02 17.79,0 32.51,-14.1 33.13,-32.02 0.64,-18.31 -13.68,-33.67 -31.99,-34.31 -0.4,-0.02 -0.79,-0.02 -1.18,-0.02" />
        <path
           id="path642"
           style="fill:#352018;fill-opacity:1;fill-rule:nonzero;stroke:none"
           d="m 1422.21,2595.45 c 0.64,-18.31 -13.68,-33.67 -31.99,-34.31 -18.31,-0.64 -33.68,13.68 -34.32,31.99 -0.64,18.32 13.69,33.68 32,34.32 18.31,0.64 33.67,-13.69 34.31,-32" />
        <path
           id="path644"
           style="fill:#ffffff;fill-opacity:1;fill-rule:nonzero;stroke:none"
           d="m 1408.61,2604.93 c 0.16,-4.57 -3.42,-8.41 -8,-8.57 -4.58,-0.16 -8.42,3.42 -8.58,8 -0.16,4.57 3.42,8.41 8,8.57 4.58,0.16 8.42,-3.42 8.58,-8" />
        <path
           id="path646"
           style="fill:#352018;fill-opacity:1;fill-rule:nonzero;stroke:none"
           d="m 1348.71,2620.79 c 6.12,14.22 21.8,24.99 39.02,26.83 10.55,1.15 30.36,-0.42 47.39,-21.97 0.81,-0.07 1.56,-0.08 2.51,0.01 1.89,0.17 4.53,0.79 7.09,1.88 5.23,2.1 9.57,6.51 9.57,6.51 l 1.2,0.2 0.47,-1.39 c 0,0 -0.65,-1.44 -1.9,-3.51 -1.23,-2.09 -3.18,-4.78 -5.65,-7.14 -2.44,-2.37 -5.36,-4.39 -7.82,-5.61 -1.22,-0.62 -2.33,-1.06 -3.15,-1.35 l -1.48,-0.41 c -2.29,-0.24 -4.37,0.99 -5.38,2.91 -11.14,15.57 -26.05,23.23 -41.97,21.52 -14.06,-1.5 -27.3,-10.47 -32.18,-21.8 -0.94,-2.14 -3.41,-3.12 -5.53,-2.2 -2.12,0.92 -3.11,3.39 -2.19,5.52" />
        <path
           id="path648"
           style="fill:#f0453b;fill-opacity:1;fill-rule:nonzero;stroke:none"
           d="m 1352.29,2431.17 c 0,-32.99 -30.08,-59.73 -67.2,-59.73 -37.11,0 -67.2,26.74 -67.2,59.73 h 134.4" />
        <path
           id="path650"
           style="fill:#ffffff;fill-opacity:1;fill-rule:nonzero;stroke:none"
           d="m 1330.36,2408.77 h -92 c -5.52,0 -10,4.48 -10,10 v 12.4 h 112 v -12.4 c 0,-5.52 -4.48,-10 -10,-10" />
        <path
           id="path652"
           style="fill:#33303e;fill-opacity:1;fill-rule:nonzero;stroke:none"
           d="m 1405.3,2533.1 c -48.34,0 -77.12,25.5 -87.99,77.97 -4.98,22.36 34.79,41.3 87.99,41.3 24.13,0 77.38,-2.14 77.38,-26.04 0,-15.57 -3.73,-93.23 -77.38,-93.23 z m -142.8,77.97 c -10.87,-52.47 -39.66,-77.97 -87.99,-77.97 -73.66,0 -77.39,77.66 -77.39,93.23 0,23.9 53.26,26.04 77.39,26.04 53.2,0 92.96,-18.94 87.99,-41.3 z m 248.05,53.43 h -29.54 c -16.9,11.44 -47.76,11.45 -75.71,11.39 -47.04,0 -78.54,-9.23 -93.75,-27.36 -5.24,2.99 -12.95,3.87 -21.65,3.87 -8.7,0 -16.41,-0.88 -21.65,-3.87 -15.21,18.13 -46.7,27.36 -93.74,27.36 -27.95,0.06 -58.82,0.05 -75.71,-11.39 h -29.54 v -31.92 l 12.77,-7.1 c 0.27,-49.8 24.58,-107.51 92.48,-107.51 55.83,0 90.41,30.29 102.8,90.03 0.89,4.33 1.25,8.52 1.18,12.57 0.85,3.33 5.18,6.63 11.41,6.63 6.24,0 10.57,-3.3 11.42,-6.63 -0.07,-4.05 0.28,-8.24 1.18,-12.57 12.38,-59.74 46.97,-90.03 102.8,-90.03 67.9,0 92.21,57.71 92.48,107.51 l 12.77,7.1 v 31.92" />
        <path
           id="path654"
           style="fill:#48342b;fill-opacity:1;fill-rule:nonzero;stroke:none"
           d="m 1087.81,2329.18 c -60.7,202.56 -103.138,328.26 -69.98,464.94 64.4,265.47 388.57,281.22 421.4,114.62 6.99,-35.46 78.4,-89.6 41.44,-264.24 -2.84,1.01 -9.18,7.86 -17.55,18.65 -25.1,32.34 -68.44,99.99 -90.12,150.9 -285.19,0.89 -189.76,-421.91 -285.19,-484.87" />
        <path
           id="path656"
           style="fill:#605f6e;fill-opacity:1;fill-rule:nonzero;stroke:none"
           d="M 1812.48,1420.6 H 757.707 c -41.754,0 -75.602,-33.8 -75.602,-75.6 0,-41.7 33.848,-75.6 75.602,-75.6 H 1812.48 c 41.76,0 75.6,33.9 75.6,75.6 0,41.8 -33.84,75.6 -75.6,75.6" />
        <path
           id="path658"
           style="fill:#abaaaa;fill-opacity:1;fill-rule:nonzero;stroke:none"
           d="M 1686.28,1417.5 H 883.914 c -10.394,0 -18.82,8.4 -18.82,18.8 0,10.4 8.426,18.8 18.82,18.8 h 802.366 c 10.39,0 18.81,-8.4 18.81,-18.8 0,-10.4 -8.42,-18.8 -18.81,-18.8" />
        <path
           id="path660"
           style="fill:#c0e5de;fill-opacity:1;fill-rule:nonzero;stroke:none"
           d="M 1655.09,1453.8 H 915.094 c -27.614,0 -50,22.3 -50,50 v 509.77 c 0,27.61 22.386,50 50,50 h 739.996 c 27.62,0 50,-22.39 50,-50 V 1503.8 c 0,-27.7 -22.38,-50 -50,-50" />
        <path
           id="path662"
           style="fill:#e1f3f0;fill-opacity:1;fill-rule:nonzero;stroke:none"
           d="m 1285.1,1709.3 c -37.94,0 -68.69,30.8 -68.69,68.7 0,38 30.75,68.7 68.69,68.7 37.93,0 68.68,-30.7 68.68,-68.7 0,-37.9 -30.75,-68.7 -68.68,-68.7" />
        <path
           id="path664"
           style="fill:#9fddf2;fill-opacity:1;fill-rule:nonzero;stroke:none"
           d="m 903.461,1455.1 h -13.063 c -14.613,4.2 -25.304,17.7 -25.304,33.7 v 15 c 0,-23.6 16.363,-43.4 38.367,-48.7 m -38.367,558.47 v 15 c 0,19.33 15.672,35 35.004,35 h 8.472 c -0.09,-0.15 -0.179,-0.31 -0.269,-0.46 -24.399,-3.31 -43.207,-24.23 -43.207,-49.54" />
        <path
           id="path666"
           style="fill:#62606e;fill-opacity:1;fill-rule:nonzero;stroke:none"
           d="m 908.301,2063.11 c 0.09,0.15 0.179,0.31 0.269,0.46 h 6.524 c -2.301,0 -4.571,-0.16 -6.793,-0.46" />
        <path
           id="path668"
           style="fill:#bcbbbb;fill-opacity:1;fill-rule:nonzero;stroke:none"
           d="M 1021.12,1453.8 H 900.098 c -3.368,0 -6.621,0.4 -9.7,1.3 h 13.063 c 3.734,-0.9 7.629,-1.3 11.633,-1.3 h 106.026 v 0" />
        <path
           id="path670"
           style="fill:#cceae4;fill-opacity:1;fill-rule:nonzero;stroke:none"
           d="M 1021.12,1453.8 H 915.094 c -4.004,0 -7.899,0.4 -11.633,1.3 -22.004,5.3 -38.367,25.1 -38.367,48.7 v 509.77 c 0,25.31 18.808,46.23 43.207,49.54 2.222,0.3 4.492,0.46 6.793,0.46 h 598.986 c -267.9,-79.47 -468.2,-319.17 -492.96,-609.77" />
      </g>
    </g>
  </g>
</svg>
