<?xml version="1.0" encoding="UTF-8" standalone="no"?>
<svg
   xmlns:dc="http://purl.org/dc/elements/1.1/"
   xmlns:cc="http://creativecommons.org/ns#"
   xmlns:rdf="http://www.w3.org/1999/02/22-rdf-syntax-ns#"
   xmlns:svg="http://www.w3.org/2000/svg"
   xmlns="http://www.w3.org/2000/svg"
   xmlns:sodipodi="http://sodipodi.sourceforge.net/DTD/sodipodi-0.dtd"
   xmlns:inkscape="http://www.inkscape.org/namespaces/inkscape"
   inkscape:version="1.0 (6e3e5246a0, 2020-05-07)"
   sodipodi:docname="3.svg"
   id="svg6288"
   version="1.1"
   viewBox="0 0 210 297"
   height="297mm"
   width="210mm">
  <defs
     id="defs6282">
    <clipPath
       id="clipPath1824"
       clipPathUnits="userSpaceOnUse">
      <path
         id="path1822"
         d="m 3676.82,7717.67 c 49.31,83.88 77.7,181.53 77.7,285.86 0,312.11 -253.02,565.13 -565.14,565.13 -312.11,0 -565.13,-253.02 -565.13,-565.13 0,-104.33 28.39,-201.99 77.7,-285.87 -146.21,-132.72 -238.01,-324.28 -238.01,-537.29 0,-400.66 324.79,-725.46 725.45,-725.46 400.66,0 725.45,324.8 725.45,725.46 0,213.01 -91.81,404.58 -238.02,537.3" />
    </clipPath>
    <clipPath
       id="clipPath608"
       clipPathUnits="userSpaceOnUse">
      <path
         id="path606"
         d="m 1772.53,2537.02 c 49.3,83.88 77.69,181.54 77.69,285.87 0,312.11 -253.02,565.13 -565.13,565.13 -312.113,0 -565.129,-253.02 -565.129,-565.13 0,-104.34 28.387,-201.99 77.691,-285.88 C 651.449,2404.3 559.641,2212.73 559.641,1999.7 c 0,-400.6 324.797,-725.4 725.459,-725.4 400.65,0 725.45,324.8 725.45,725.4 0,213.04 -91.81,404.6 -238.02,537.32" />
    </clipPath>
    <clipPath
       id="clipPath1362"
       clipPathUnits="userSpaceOnUse">
      <path
         id="path1360"
         d="m 11294,7722.53 c 49.3,83.88 77.7,181.53 77.7,285.86 0,312.12 -253,565.14 -565.1,565.14 -312.2,0 -565.2,-253.02 -565.2,-565.14 0,-104.33 28.4,-201.98 77.7,-285.87 -146.2,-132.71 -238,-324.28 -238,-537.29 0,-400.66 324.8,-725.46 725.5,-725.46 400.6,0 725.4,324.8 725.4,725.46 0,213.01 -91.8,404.58 -238,537.3" />
    </clipPath>
  </defs>
  <sodipodi:namedview
     inkscape:window-maximized="1"
     inkscape:window-y="27"
     inkscape:window-x="0"
     inkscape:window-height="713"
     inkscape:window-width="1366"
     showgrid="false"
     inkscape:document-rotation="0"
     inkscape:current-layer="layer1"
     inkscape:document-units="mm"
     inkscape:cy="662.283"
     inkscape:cx="522.605"
     inkscape:zoom="0.35"
     inkscape:pageshadow="2"
     inkscape:pageopacity="0.0"
     borderopacity="1.0"
     bordercolor="#666666"
     pagecolor="#ffffff"
     id="base" />
  <metadata
     id="metadata6285">
    <rdf:RDF>
      <cc:Work
         rdf:about="">
        <dc:format>image/svg+xml</dc:format>
        <dc:type
           rdf:resource="http://purl.org/dc/dcmitype/StillImage" />
        <dc:title></dc:title>
      </cc:Work>
    </rdf:RDF>
  </metadata>
  <g
     id="layer1"
     inkscape:groupmode="layer"
     inkscape:label="Слой 1">
    <g
       id="g1356"
       transform="matrix(0.15196114,0,0,-0.15196114,-1538.4678,1285.2286)">
      <g
         clip-path="url(#clipPath1362)"
         id="g1358">
        <path
           id="path1364"
           style="fill:#c8c7c5;fill-opacity:1;fill-rule:nonzero;stroke:none"
           d="m 11069.4,7861.6 c -13.7,5.32 -27.6,10.21 -41.5,14.67 l 5.5,71.7 v 0 c 0,116.01 -110.9,210 -226.8,210 v 0 h -0.1 c -115.9,-0.02 -226.7,-94.01 -226.7,-210 l 5.5,-71.69 c -1,-0.32 -2,-0.64 -3,-0.96 -30.8,107.96 -55.7,300.04 143.7,331.4 22.4,18.05 51.1,29.82 85.2,29.82 28.2,0 60.1,-8.05 95.3,-27.24 25.8,-14.07 47.7,-21.33 66.4,-21.33 19.6,0 35.6,7.93 48.6,24.33 3.9,4.86 9.4,7.19 14.8,7.19 7.1,0 14.1,-4.05 17,-11.7 27.2,-70 34.8,-114.47 25.5,-142.5 25.3,-70.21 8.4,-150.4 -9.4,-203.69" />
        <path
           id="path1366"
           style="fill:#9484ad;fill-opacity:1;fill-rule:nonzero;stroke:none"
           d="m 11162.4,6552.88 c -0.9,245.79 2.1,535.94 2.1,535.94 0,-0.01 0,-0.01 0.1,-0.01 1.7,0 87.3,66.56 61.4,217.74 -13.5,79.37 -89.8,91.85 -211.7,130.73 l 0.3,6.3 -84.9,43.63 h -22.3 v 70.83 c 56.2,38.86 106.4,102.5 109.3,168.92 0,0.24 0,0.5 0,0.74 0,0.15 0.1,0.29 0.1,0.44 0,0.55 0,1.1 0,1.66 0,1.05 0,2.1 0,3.15 v 0 c 23.1,0.16 41.7,18.87 41.7,41.97 v 43.68 0 c 0,19.73 -13.6,36.16 -31.9,40.66 l 1.3,17.01 c 13.9,-4.46 27.8,-9.35 41.5,-14.67 -1.5,-4.29 -2.9,-8.42 -4.3,-12.34 8.2,-7.64 13.4,-18.51 13.4,-30.66 v -43.68 c 0,-23.1 -18.6,-41.81 -41.7,-41.97 0,-5.62 -0.4,-11.21 -1.1,-16.78 -0.9,-7.91 -2.4,-15.77 -4.6,-23.53 l -0.1,-0.31 c -0.3,-1.25 -0.8,-2.5 -1.1,-3.75 -0.9,-2.94 -1.9,-5.86 -3,-8.77 -1.9,-5.22 -4,-10.4 -6.4,-15.5 l -0.6,-1.4 c -0.6,-1.29 -1.3,-2.56 -2,-3.84 -0.9,-1.91 -1.9,-3.82 -2.9,-5.71 -2.9,-5.5 -6.2,-10.89 -9.7,-16.2 l -1.4,-2.24 c -0.9,-1.31 -1.8,-2.59 -2.7,-3.88 -1.2,-1.69 -2.3,-3.38 -3.5,-5.04 -3.9,-5.29 -8,-10.43 -12.2,-15.45 l -1.4,-1.69 c -1.8,-2.05 -3.6,-4.05 -5.5,-6.05 l -1.9,-2.13 c -1.5,-1.66 -3.1,-3.26 -4.7,-4.88 -1,-1 -1.9,-2.03 -2.9,-3.02 -1.2,-1.17 -2.4,-2.29 -3.6,-3.45 -1.4,-1.38 -2.8,-2.79 -4.3,-4.14 -5.2,-4.79 -10.5,-9.37 -15.9,-13.74 l -0.5,-0.46 c -5.2,-4.16 -10.5,-8.09 -15.8,-11.83 l -1.3,-0.95 -0.3,-0.17 v -70.83 h 22.3 l 84.9,-43.63 -0.3,-6.26 c 87.4,-27.87 151.4,-42.39 185.5,-77.59 l 0.1,0.12 c 85.4,-80.64 176.7,-183.85 232.6,-297.75 30,-61.01 34,-110.95 26.4,-149.79 -0.7,-1.66 -1.3,-3.35 -2,-5.01 -10.2,-24.47 -21.6,-48.27 -34.3,-71.3 -6.2,-7.26 -12.2,-12.97 -17.3,-17.12 -30.4,-24.69 -110.2,-28.44 -173.4,-28.44 -27.6,0 -52,0.71 -67.7,0.71 l -1.7,0.01 c -0.3,-72.89 -0.4,-151.55 -0.2,-226.6 -6.5,-3.99 -13.2,-7.89 -19.9,-11.68 m 22.1,535.94 c 0,0 -0.5,-51.23 -1.1,-128.79 25.8,-2.02 56.7,-4.17 81,-4.17 19.8,0 35.2,1.42 40.2,5.48 0.6,0.45 9.6,9 -13,34.1 -48.4,53.91 -72.4,69.79 -104.9,94.84 -1.2,-0.97 -2,-1.47 -2.1,-1.47 -0.1,0 -0.1,0.01 -0.1,0.01 m -783.3,-298.38 c -63.2,0 -143,3.75 -173.4,28.44 -30.6,24.94 -94.5,106.13 -27.2,243.22 46.4,94.48 117.1,181.61 188.6,254.6 -0.8,-3.26 -1.5,-6.64 -2.1,-10.15 -25.9,-151.17 59.7,-217.74 61.5,-217.74 0,0 0,0 0,0.01 0,0 0,-4.18 0.1,-11.95 -24.9,-19.12 -48.6,-38.56 -87.2,-81.43 -22.5,-25.1 -13.6,-33.65 -13,-34.1 5,-4.06 20.5,-5.48 40.2,-5.48 18.3,0 40.3,1.21 61,2.67 0.3,-47.87 0.7,-105.63 0.9,-167.56 -13.9,-0.21 -31,-0.53 -49.4,-0.53 m 185.2,1071.05 c -1.3,4.44 -2.7,9.04 -4.1,13.83 1,0.32 2,0.64 3,0.96 l 1.1,-14.79" />
        <path
           id="path1368"
           style="fill:#2d2b35;fill-opacity:1;fill-rule:nonzero;stroke:none"
           d="m 10683.4,7382.73 h 246.301 v 104.48 H 10683.4 Z" />
        <path
           id="path1370"
           style="fill:#f7c6b2;fill-opacity:1;fill-rule:nonzero;stroke:none"
           d="m 10938.8,7455.85 -31.4,14.48 v 99.86 h -201.6 v -99.86 l -31.5,-13.61 8.4,-283.19 h 23.1 v -43.42 h 201.6 v 43.42 h 23 l 8.4,282.32" />
        <path
           id="path1372"
           style="fill:#d58367;fill-opacity:1;fill-rule:nonzero;stroke:none"
           d="m 10907.4,7476.95 -201.6,14.9 v 66.13 c 34.6,-23.89 71.4,-38.39 100.7,-38.4 v 0 h 0.1 v 0 h 0.1 c 0.1,0 0.1,0 0.1,0 0.1,0 0.1,0 0.2,0 0,0 0,0 0.1,0 h 0.1 0.1 0.1 c 0.1,0 0.1,0 0.1,0 0.1,0 0.1,0 0.2,0 v 0 c 0.1,0 0.2,0 0.2,0.01 h 0.1 c 0,0 0.1,0 0.2,0 v 0 c 0.1,0 0.1,0 0.2,0 0,0 0,0 0,0.01 0.1,0 0.2,0 0.2,0 h 0.1 0.1 c 0.1,0 0.1,0.01 0.1,0.01 0.1,0 0.1,0 0.2,0 v 0 c 0.1,0 0.1,0 0.2,0.01 0,0 0,0 0.1,0 h 0.1 l 0.1,0.01 c 0.1,0 0.1,0 0.1,0 0.1,0 0.1,0 0.2,0 0,0.01 0,0.01 0.1,0.01 0,0 0,0 0.1,0 l 0.1,0.01 h 0.1 c 0.1,0 0.1,0.01 0.1,0.01 0.1,0 0.1,0 0.2,0 0,0 0,0.01 0.1,0.01 0,0 0,0 0.1,0 l 0.1,0.01 h 0.1 c 0.1,0 0.1,0.01 0.1,0.01 0.1,0 0.1,0 0.2,0.01 v 0 c 0.1,0 0.1,0 0.2,0.01 v 0 c 0.1,0 0.2,0.01 0.2,0.01 0.1,0 0.1,0 0.1,0 0,0.01 0.1,0.01 0.2,0.01 v 0.01 c 0.1,0 0.2,0 0.2,0.01 h 0.1 c 0,0 0.1,0.01 0.2,0.01 v 0 c 0.1,0.01 0.1,0.01 0.2,0.02 v 0 c 0.2,0.01 0.3,0.02 0.5,0.03 v 0 c 0.2,0.01 0.3,0.02 0.4,0.03 0.1,0 0.1,0 0.1,0 0.1,0.02 0.3,0.03 0.4,0.04 v 0 c 0.1,0.01 0.2,0.01 0.3,0.02 v 0 c 0.1,0.01 0.1,0.01 0.2,0.02 v 0 c 0.1,0 0.2,0.01 0.2,0.02 h 0.1 c 0,0.01 0.1,0.01 0.2,0.02 v 0 c 0.2,0.01 0.3,0.03 0.5,0.04 v 0 c 0.1,0.01 0.1,0.02 0.2,0.02 0,0.01 0,0.01 0,0.01 0.1,0 0.2,0.01 0.3,0.02 v 0 c 0.1,0.02 0.3,0.03 0.4,0.05 0,0 0,0 0.1,0 0,0 0.1,0.01 0.2,0.02 v 0 c 27.5,2.85 59.9,16.68 90.6,37.92 v -81.09" />
        <path
           id="path1374"
           style="fill:#ffffff;fill-opacity:1;fill-rule:nonzero;stroke:none"
           d="m 10941.7,7455.19 -7.5,-28.14 c -13,-37.13 -46.2,-97.86 -125.1,-97.86 -89.1,0 -123,77.32 -133.6,110.81 l -4,15.19 c -164,-61.61 -113.7,-575.11 -113.7,-575.11 l -1,-426.51 250.2,-0.04 263.6,0.04 -6.9,426.51 c 0,0 41.9,513.5 -122,575.11" />
        <path
           id="path1376"
           style="fill:#94231e;fill-opacity:1;fill-rule:nonzero;stroke:none"
           d="m 10855.1,7343.06 -19.4,-37.06 h -58.9 l -18.8,37.06 48.6,39.67 48.5,-39.67" />
        <path
           id="path1378"
           style="fill:#e9eae9;fill-opacity:1;fill-rule:nonzero;stroke:none"
           d="m 10806.6,7382.72 -62,-65.27 -106,126.47 66.1,32.95 24.9,-23.03 77,-71.12" />
        <path
           id="path1380"
           style="fill:#e9eae9;fill-opacity:1;fill-rule:nonzero;stroke:none"
           d="m 10908.5,7476.84 -101.9,-94.11 62,-65.31 106,126.54 -66.1,32.88" />
        <path
           id="path1382"
           style="fill:#94231e;fill-opacity:1;fill-rule:nonzero;stroke:none"
           d="m 10835.7,7297.14 24,-771.78 -53.1,-58.75 -53.2,58.75 23.4,771.78 h 58.9" />
        <path
           id="path1384"
           style="fill:#2d2b35;fill-opacity:1;fill-rule:nonzero;stroke:none"
           d="m 11226,7306.55 c -16,94.15 -120.4,94.17 -284.3,155.78 l -135.1,-546.85 -135.1,546.85 c -164,-61.61 -268.3,-61.63 -284.4,-155.78 -26,-152.14 60.8,-218.58 61.5,-217.73 0,0 7.1,-675.3 -3.6,-838.11 l 336.4,-0.03 25.2,117.59 25.2,-117.59 336.3,0.03 c -10.7,162.81 -3.6,838.11 -3.6,838.11 0.7,-0.85 87.5,65.59 61.5,217.73" />
        <path
           id="path1386"
           style="fill:#484547;fill-opacity:1;fill-rule:nonzero;stroke:none"
           d="m 10598.6,7443.58 3.3,-96.33 48.1,-39.57 -37.5,-51.17 192.8,-341.03 -121.9,571.73 -84.8,-43.63" />
        <path
           id="path1388"
           style="fill:#484547;fill-opacity:1;fill-rule:nonzero;stroke:none"
           d="m 11014.6,7443.58 -3.3,-96.33 -48.1,-39.57 37.4,-51.17 -192.8,-341.03 121.9,571.73 84.9,-43.63" />
        <path
           id="path1390"
           style="fill:#e9eae9;fill-opacity:1;fill-rule:nonzero;stroke:none"
           d="m 11008.1,6761.16 h -402.6 c -32.4,0 -58.8,26.33 -58.8,58.8 l -25.2,336 c 0,32.47 26.4,58.8 58.8,58.8 h 453 c 32.5,0 58.8,-26.33 58.8,-58.8 l -25.2,-336 c 0,-32.47 -26.3,-58.8 -58.8,-58.8" />
        <path
           id="path1392"
           style="fill:#242228;fill-opacity:1;fill-rule:nonzero;stroke:none"
           d="m 11040.9,6770.68 c 0.1,0.27 0.3,0.55 0.5,0.83 15.4,10.61 25.5,28.35 25.5,48.45 l 12.8,171.23 -12.8,-172.3 c 0,-20.16 -10.4,-37.89 -26,-48.21 m 51.2,386.21 c -0.5,32.05 -26.7,57.87 -58.8,57.87 h 1 c 31.9,0 57.8,-25.85 57.8,-57.73 v -0.14 m -561,31.86 c 10.3,15.66 28,26.01 48.2,26.01 h 1 c -20.1,0 -37.8,-10.09 -48.4,-25.48 -0.3,-0.18 -0.6,-0.35 -0.8,-0.53" />
        <path
           id="path1394"
           style="fill:#b2b3b3;fill-opacity:1;fill-rule:nonzero;stroke:none"
           d="m 11041.4,6771.51 c 5.7,8.93 9,19.52 9,30.89 l 25.2,338.13 c 0,31.89 -25.9,57.74 -57.7,57.74 h -455.1 c -11.4,0 -22,-3.31 -30.9,-8.99 10.6,15.39 28.3,25.48 48.4,25.48 h 453 c 32.1,0 58.3,-25.82 58.8,-57.87 l -12.4,-165.7 -12.8,-171.23 c 0,-20.1 -10.1,-37.84 -25.5,-48.45" />
        <path
           id="path1396"
           style="fill:#605f6e;fill-opacity:1;fill-rule:nonzero;stroke:none"
           d="m 10594.2,6963.22 h -2.3 c -13,0 -23.6,10.6 -23.6,23.56 v 2.36 c 0,12.96 10.6,23.56 23.6,23.56 h 2.3 c 13,0 23.6,-10.6 23.6,-23.56 v -2.36 c 0,-12.96 -10.6,-23.56 -23.6,-23.56" />
        <path
           id="path1398"
           style="fill:#f7c6b2;fill-opacity:1;fill-rule:nonzero;stroke:none"
           d="m 10563.7,6953.78 c 0,0 -39.5,-4.4 -70.2,-6.68 -7.7,-0.46 -15.3,-0.92 -22.5,-1.35 -7.1,-0.21 -13.7,-0.42 -19.3,-0.59 -11.2,0.05 -18.6,0.08 -18.6,0.08 l -3,-125.97 c 0,0 9.4,-0.04 23.3,-0.1 6.8,0.21 14.8,0.45 23.3,0.71 8.4,0.5 17.3,1.04 26.2,1.58 35.3,2.63 77.5,7.43 77.5,7.43 27.1,3.56 43.8,35.17 38.1,69.34 -5.8,34.44 -30.4,58.73 -54.8,55.55" />
        <path
           id="path1400"
           style="fill:#f7c6b2;fill-opacity:1;fill-rule:nonzero;stroke:none"
           d="m 10521.8,6986.35 c -20.9,-2.35 -37,-17.11 -49.2,-31.81 -12,-14.45 -19.8,-28.94 -20.4,-30.15 -4.9,-9.13 -3.8,-22.46 3.2,-29.36 7,-6.82 16.9,-4.98 21.7,4.52 0.1,0.19 1.5,2.93 4,6.96 2.5,4.02 6,9.34 10.4,14.67 8.8,10.82 20.6,21.79 34.8,23.42 8.2,0.93 13.7,11.01 12.3,22.52 -1.4,11.51 -9,20.12 -16.8,19.23" />
        <path
           id="path1402"
           style="fill:#2d2b35;fill-opacity:1;fill-rule:nonzero;stroke:none"
           d="m 10448.9,6791.15 c -51.7,0 -197.5,-7.75 -241.1,27.73 -30.6,24.94 -94.5,106.12 -27.2,243.22 56,113.9 147.2,217.11 232.6,297.75 l 101.3,-211.46 c -79.3,-74.84 -98.5,-70.04 -173,-152.95 -22.5,-25.1 -13.6,-33.65 -13,-34.1 11.9,-9.71 83.9,-4.31 131.2,-0.52 l 12.1,-167.51 c -15.6,-1.25 -6.6,-2.16 -22.9,-2.16" />
        <path
           id="path1404"
           style="fill:#f7c6b2;fill-opacity:1;fill-rule:nonzero;stroke:none"
           d="m 11049.4,6953.78 c 0,0 39.6,-4.4 70.3,-6.68 7.6,-0.46 15.2,-0.92 22.4,-1.35 7.1,-0.21 13.7,-0.42 19.4,-0.59 11.1,0.05 18.5,0.08 18.5,0.08 l 3,-125.97 c 0,0 -9.3,-0.04 -23.3,-0.1 -6.8,0.21 -14.8,0.45 -23.3,0.71 -8.3,0.5 -17.2,1.04 -26.2,1.58 -35.2,2.63 -77.5,7.43 -77.5,7.43 -27.1,3.56 -43.8,35.17 -38.1,69.34 5.9,34.44 30.4,58.73 54.8,55.55" />
        <path
           id="path1406"
           style="fill:#f7c6b2;fill-opacity:1;fill-rule:nonzero;stroke:none"
           d="m 11091.4,6986.35 c 20.8,-2.35 37,-17.11 49.1,-31.81 12,-14.45 19.8,-28.94 20.4,-30.15 4.9,-9.13 3.8,-22.46 -3.2,-29.36 -6.9,-6.82 -16.9,-4.98 -21.6,4.52 -0.1,0.19 -1.6,2.93 -4.1,6.96 -2.5,4.02 -6,9.34 -10.4,14.67 -8.7,10.82 -20.5,21.79 -34.8,23.42 -8.2,0.93 -13.7,11.01 -12.3,22.52 1.4,11.51 9,20.12 16.9,19.23" />
        <path
           id="path1408"
           style="fill:#2d2b35;fill-opacity:1;fill-rule:nonzero;stroke:none"
           d="m 11164.2,6791.15 c 51.7,0 197.5,-7.75 241.1,27.73 30.6,24.94 94.6,106.12 27.2,243.22 -55.9,113.9 -147.2,217.11 -232.6,297.75 l -98.4,-213.84 c 79.3,-74.84 95.6,-67.66 170.1,-150.57 22.6,-25.1 13.6,-33.65 13,-34.1 -11.9,-9.71 -83.9,-4.31 -131.1,-0.52 l -12.2,-167.51 c 15.7,-1.25 6.6,-2.16 22.9,-2.16" />
        <path
           id="path1410"
           style="fill:#f7c6b2;fill-opacity:1;fill-rule:nonzero;stroke:none"
           d="m 11026.6,7859.26 6.8,88.71 c 0,116.01 -110.9,210 -226.8,210 -116,0 -226.8,-93.99 -226.8,-210 l 6.8,-88.62 c -6.5,-1.56 -12.3,-4.54 -17.2,-8.73 -9.1,-7.73 -14.8,-19.15 -14.8,-32 v -43.69 c 0,-23.09 18.6,-41.82 41.7,-41.97 0,-109.54 131.6,-213.38 210.3,-213.38 78.6,0 210.2,103.82 210.2,213.37 23.1,0.16 41.7,18.87 41.7,41.97 v 43.68 c 0,19.73 -13.6,36.16 -31.9,40.66" />
        <path
           id="path1412"
           style="fill:#d06448;fill-opacity:1;fill-rule:nonzero;stroke:none"
           d="m 10806.6,7519.58 v 0 h -0.1 c 0.1,0 0.1,0 0.1,0 h 0.1 -0.1 m 0.2,0 c 0.1,0 0.1,0 0.2,0 -0.1,0 -0.1,0 -0.2,0 m 0.3,0 h 0.1 -0.1 m 0.2,0 h 0.1 -0.1 m 0.2,0 c 0.1,0 0.1,0 0.2,0 -0.1,0 -0.1,0 -0.2,0 m 0.2,0 c 0.1,0 0.2,0.01 0.2,0.01 0,-0.01 -0.1,-0.01 -0.2,-0.01 m 0.3,0.01 c 0,0 0.1,0 0.2,0 -0.1,0 -0.2,0 -0.2,0 m 0.2,0 c 0.1,0 0.1,0 0.2,0 -0.1,0 -0.1,0 -0.2,0 m 0.2,0.01 c 0.1,0 0.2,0 0.2,0 0,0 -0.1,0 -0.2,0 m 0.3,0 h 0.1 -0.1 m 0.2,0.01 c 0.1,0 0.1,0 0.2,0 -0.1,0 -0.1,0 -0.2,0 m 0.2,0 c 0.1,0 0.1,0 0.2,0.01 -0.1,-0.01 -0.1,-0.01 -0.2,-0.01 m 0.3,0.01 h 0.1 -0.1 m 0.2,0.01 c 0.1,0 0.1,0 0.1,0 0,0 0,0 -0.1,0 m 0.3,0 c 0,0.01 0,0.01 0.1,0.01 -0.1,0 -0.1,0 -0.1,-0.01 m 0.2,0.01 0.1,0.01 -0.1,-0.01 m 0.2,0.01 c 0.1,0 0.1,0.01 0.1,0.01 0,0 0,-0.01 -0.1,-0.01 m 0.3,0.01 c 0,0 0,0.01 0.1,0.01 -0.1,0 -0.1,-0.01 -0.1,-0.01 m 0.2,0.01 0.1,0.01 -0.1,-0.01 m 0.2,0.01 c 0.1,0 0.1,0.01 0.1,0.01 0,0 0,-0.01 -0.1,-0.01 m 0.3,0.02 v 0 0 m 0.2,0.01 v 0 0 m 0.2,0.01 c 0.1,0 0.1,0 0.1,0 0,0 0,0 -0.1,0 m 0.3,0.01 v 0.01 -0.01 m 0.2,0.02 h 0.1 -0.1 m 0.3,0.01 v 0 0 m 0.2,0.02 v 0 0 m 0.5,0.03 v 0 0 m 0.4,0.03 c 0.1,0 0.1,0 0.1,0 0,0 0,0 -0.1,0 m 0.5,0.04 v 0 0 m 0.3,0.02 v 0 0 m 0.2,0.02 v 0 0 m 0.2,0.02 h 0.1 -0.1 m 0.3,0.02 v 0 0 m 0.5,0.04 v 0 0 m 0.2,0.02 v 0.01 c 0,0 0,0 0,-0.01 m 0.3,0.03 v 0 0 m 0.4,0.05 c 0,0 0,0 0.1,0 -0.1,0 -0.1,0 -0.1,0 m 0.3,0.02 v 0 0" />
        <path
           id="path1414"
           style="fill:#bf9a89;fill-opacity:1;fill-rule:nonzero;stroke:none"
           d="m 10806.5,8157.97 v 0 h 0.1 c 0,0 0,0 -0.1,0" />
        <path
           id="path1416"
           style="fill:#ef9778;fill-opacity:1;fill-rule:nonzero;stroke:none"
           d="m 10806.6,7519.58 c 0,0 0,0 -0.1,0 v 180.59 h -50.4 c 0,0 19.8,94.44 50.4,159.61 v 298.19 c 0.1,0 0.1,0 0.1,0 v 0 c 115.9,0 226.8,-93.99 226.8,-210 l -6.8,-88.71 v 0 c 18.3,-4.5 31.9,-20.93 31.9,-40.66 v -43.68 c 0,-23.1 -18.6,-41.81 -41.7,-41.97 v 0 c 0,-1.05 0,-2.1 0,-3.15 0,-0.56 0,-1.11 0,-1.66 0,-0.15 -0.1,-0.29 -0.1,-0.44 0,-0.24 0,-0.5 0,-0.74 -4.4,-102.7 -122.1,-198.78 -199.9,-206.84 v 0 c -0.1,-0.01 -0.2,-0.02 -0.2,-0.02 -0.1,0 -0.1,0 -0.1,0 -0.1,-0.02 -0.3,-0.03 -0.4,-0.05 v 0 c -0.1,-0.01 -0.2,-0.02 -0.3,-0.02 v -0.01 c -0.1,0 -0.1,-0.01 -0.2,-0.02 v 0 c -0.2,-0.01 -0.3,-0.03 -0.5,-0.04 v 0 c -0.1,-0.01 -0.2,-0.01 -0.2,-0.02 h -0.1 c 0,-0.01 -0.1,-0.02 -0.2,-0.02 v 0 c -0.1,-0.01 -0.1,-0.01 -0.2,-0.02 v 0 c -0.1,-0.01 -0.2,-0.01 -0.3,-0.02 v 0 c -0.1,-0.01 -0.3,-0.02 -0.4,-0.04 0,0 0,0 -0.1,0 -0.1,-0.01 -0.3,-0.02 -0.4,-0.03 v 0 c -0.2,-0.01 -0.3,-0.02 -0.5,-0.03 v 0 c -0.1,-0.01 -0.1,-0.01 -0.2,-0.02 v 0 c -0.1,0 -0.2,-0.01 -0.2,-0.01 h -0.1 c 0,-0.01 -0.1,-0.01 -0.2,-0.01 v -0.01 c -0.1,0 -0.2,0 -0.2,-0.01 0,0 0,0 -0.1,0 0,0 -0.1,-0.01 -0.2,-0.01 v 0 c -0.1,-0.01 -0.1,-0.01 -0.2,-0.01 v 0 c -0.1,-0.01 -0.1,-0.01 -0.2,-0.01 0,0 0,-0.01 -0.1,-0.01 h -0.1 l -0.1,-0.01 c -0.1,0 -0.1,0 -0.1,0 -0.1,0 -0.1,-0.01 -0.1,-0.01 -0.1,0 -0.1,0 -0.2,0 0,0 0,-0.01 -0.1,-0.01 h -0.1 l -0.1,-0.01 c -0.1,0 -0.1,0 -0.1,0 -0.1,0 -0.1,0 -0.1,-0.01 -0.1,0 -0.1,0 -0.2,0 0,0 0,0 -0.1,0 l -0.1,-0.01 h -0.1 c -0.1,0 -0.1,0 -0.1,0 -0.1,-0.01 -0.1,-0.01 -0.2,-0.01 v 0 c -0.1,0 -0.1,0 -0.2,0 0,0 0,-0.01 -0.1,-0.01 h -0.1 -0.1 c 0,0 -0.1,0 -0.2,0 0,-0.01 0,-0.01 0,-0.01 -0.1,0 -0.1,0 -0.2,0 v 0 c -0.1,0 -0.2,0 -0.2,0 h -0.1 c 0,0 -0.1,-0.01 -0.2,-0.01 v 0 c -0.1,0 -0.1,0 -0.2,0 0,0 0,0 -0.1,0 h -0.1 -0.1 -0.1 c -0.1,0 -0.1,0 -0.1,0 -0.1,0 -0.1,0 -0.2,0 0,0 0,0 -0.1,0 h -0.1 m 96.6,322.8 c -0.4,0 -0.8,-0.01 -1.2,-0.02 -18.3,-0.64 -32.6,-16 -32,-34.31 0.6,-17.92 15.3,-32.02 33.1,-32.02 0.4,0 0.8,0.01 1.2,0.02 18.3,0.64 32.6,16 32,34.31 -0.6,17.92 -15.3,32.02 -33.1,32.02" />
        <path
           id="path1418"
           style="fill:#ef9778;fill-opacity:1;fill-rule:nonzero;stroke:none"
           d="m 10709.9,7776.03 c -17.8,0 -32.5,14.1 -33.1,32.02 -0.6,18.31 13.7,33.67 32,34.31 0.4,0.01 0.8,0.02 1.2,0.02 17.8,0 32.5,-14.1 33.1,-32.02 0.6,-18.31 -13.7,-33.67 -32,-34.31 -0.4,-0.01 -0.8,-0.02 -1.2,-0.02" />
        <path
           id="path1420"
           style="fill:#352018;fill-opacity:1;fill-rule:nonzero;stroke:none"
           d="m 10743.1,7818.76 c 0.6,-18.31 -13.7,-33.67 -32,-34.31 -18.3,-0.64 -33.7,13.69 -34.3,32 -0.6,18.31 13.7,33.67 32,34.31 18.3,0.64 33.7,-13.68 34.3,-32" />
        <path
           id="path1422"
           style="fill:#ffffff;fill-opacity:1;fill-rule:nonzero;stroke:none"
           d="m 10729.5,7803.05 c 0.2,-4.58 -3.4,-8.42 -8,-8.58 -4.6,-0.16 -8.4,3.42 -8.6,8 -0.1,4.58 3.4,8.42 8,8.58 4.6,0.16 8.4,-3.42 8.6,-8" />
        <path
           id="path1424"
           style="fill:#e87151;fill-opacity:1;fill-rule:nonzero;stroke:none"
           d="m 10903.1,7776.03 c -17.8,0 -32.5,14.1 -33.1,32.02 -0.6,18.31 13.7,33.67 32,34.31 0.4,0.01 0.8,0.02 1.2,0.02 17.8,0 32.5,-14.1 33.1,-32.02 0.6,-18.31 -13.7,-33.67 -32,-34.31 -0.4,-0.01 -0.8,-0.02 -1.2,-0.02" />
        <path
           id="path1426"
           style="fill:#352018;fill-opacity:1;fill-rule:nonzero;stroke:none"
           d="m 10936.3,7818.76 c 0.6,-18.31 -13.7,-33.67 -32,-34.31 -18.3,-0.64 -33.7,13.69 -34.3,32 -0.6,18.31 13.7,33.67 32,34.31 18.3,0.64 33.7,-13.68 34.3,-32" />
        <path
           id="path1428"
           style="fill:#ffffff;fill-opacity:1;fill-rule:nonzero;stroke:none"
           d="m 10922.7,7803.05 c 0.2,-4.58 -3.4,-8.42 -8,-8.58 -4.6,-0.16 -8.4,3.42 -8.6,8 -0.1,4.58 3.4,8.42 8,8.58 4.6,0.16 8.4,-3.42 8.6,-8" />
        <path
           id="path1430"
           style="fill:#48342b;fill-opacity:1;fill-rule:nonzero;stroke:none"
           d="m 10873.5,7571.22 c -6.1,-3.98 -28.1,-11.71 -46,-15.57 v 22.52 c 0,11.6 -9.4,21 -21,21 -11.6,0 -21,-9.4 -21,-21 v -22.53 c -17.8,3.87 -39.8,11.6 -45.8,15.58 -3.4,10.11 -2.8,35.54 -4.2,62.5 19.4,14.76 56.5,19.67 71.1,20.38 14.6,-0.72 51.6,-5.63 71.1,-20.37 -1.5,-26.84 -0.8,-52.35 -4.2,-62.51 z m 33.4,81.41 c -30.1,31.44 -92.6,34.79 -99.7,35.07 h -1.3 c -7,-0.28 -69.5,-3.63 -99.6,-35.07 -3.1,-3.16 -4.7,-7.38 -4.7,-11.76 0.4,-43.37 7.7,-84.59 8.3,-86.32 1.1,-2.76 2.9,-5.2 5.2,-7.05 1.4,-1.14 43.5,-27.79 91.4,-27.79 48,0 90.1,26.64 91.5,27.77 2.3,1.86 4.1,4.3 5.2,7.07 0.7,1.74 7.9,42.95 8.3,86.31 0.1,4.39 -1.6,8.61 -4.6,11.77" />
        <path
           id="path1432"
           style="fill:#48342b;fill-opacity:1;fill-rule:nonzero;stroke:none"
           d="m 11058.8,8065.29 c 9.3,28.02 1.7,72.5 -25.5,142.49 -5.2,13.46 -22.8,15.8 -31.8,4.52 -25.5,-32.08 -62.3,-31.78 -115,-3 -77.8,42.41 -139.5,30.38 -180.5,-2.58 -280,-44.03 -117.8,-404.92 -117.8,-404.92 0,0 -19.2,217.25 79.3,202.92 60.5,-8.8 105.4,-11.8 139.1,-11.54 33.7,-0.26 78.6,2.74 139.1,11.54 98.4,14.33 79.2,-202.92 79.2,-202.92 0,0 76.3,145.82 33.9,263.49" />
        <path
           id="path1434"
           style="fill:#2d2b35;fill-opacity:1;fill-rule:nonzero;stroke:none"
           d="m 10933.7,7751.06 c -60.7,0 -79.7,31.86 -89.7,79.7 -2.2,11.03 -0.4,20.31 5.5,27.6 8.4,10.32 29.9,22.62 84.2,22.62 78.7,0 78.7,-39.08 78.7,-51.93 0,-40.5 -9.5,-77.99 -78.7,-77.99 z m -164.3,79.7 c -9.9,-47.84 -28.9,-79.7 -89.6,-79.7 -69.2,0 -78.8,37.49 -78.8,77.99 0,12.85 0,51.93 78.8,51.93 54.3,0 75.7,-12.3 84.1,-22.62 6,-7.29 7.8,-16.57 5.5,-27.6 z m 272.4,54.69 h -45.5 c -14.4,7.53 -34.5,12.33 -62.6,12.33 -46.8,0 -78.6,-8.97 -94.9,-26.49 -7.7,4.24 -19.2,9.06 -32.2,9.06 -12.9,0 -24.3,-4.73 -32.1,-8.94 -16.3,17.44 -48,26.37 -94.7,26.37 -28.2,0 -48.3,-4.8 -62.6,-12.33 h -45.8 v -32.75 l 15,-5.27 c -1.5,-6.15 -2.2,-12.37 -2.2,-18.38 0,-40.69 9.9,-94.79 95.6,-94.79 76.5,0 96.5,47.06 106.1,93.09 1.4,6.98 1.6,13.63 0.6,19.87 3.7,2.39 9.9,4.48 20.1,4.48 10.4,0 16.6,-2.2 20.3,-4.66 -0.9,-6.19 -0.7,-12.78 0.7,-19.69 9.5,-46.03 29.6,-93.09 106.1,-93.09 85.6,0 95.5,54.1 95.5,94.79 0,6.04 -0.6,12.31 -2.2,18.48 l 14.8,5.17 v 32.75" />
      </g>
    </g>
  </g>
</svg>
