<?xml version="1.0" encoding="UTF-8" standalone="no"?>
<svg
   xmlns:dc="http://purl.org/dc/elements/1.1/"
   xmlns:cc="http://creativecommons.org/ns#"
   xmlns:rdf="http://www.w3.org/1999/02/22-rdf-syntax-ns#"
   xmlns:svg="http://www.w3.org/2000/svg"
   xmlns="http://www.w3.org/2000/svg"
   xmlns:sodipodi="http://sodipodi.sourceforge.net/DTD/sodipodi-0.dtd"
   xmlns:inkscape="http://www.inkscape.org/namespaces/inkscape"
   inkscape:version="1.0 (6e3e5246a0, 2020-05-07)"
   sodipodi:docname="4.svg"
   id="svg6288"
   version="1.1"
   viewBox="0 0 210 297"
   height="297mm"
   width="210mm">
  <defs
     id="defs6282">
    <clipPath
       id="clipPath1824"
       clipPathUnits="userSpaceOnUse">
      <path
         id="path1822"
         d="m 3676.82,7717.67 c 49.31,83.88 77.7,181.53 77.7,285.86 0,312.11 -253.02,565.13 -565.14,565.13 -312.11,0 -565.13,-253.02 -565.13,-565.13 0,-104.33 28.39,-201.99 77.7,-285.87 -146.21,-132.72 -238.01,-324.28 -238.01,-537.29 0,-400.66 324.79,-725.46 725.45,-725.46 400.66,0 725.45,324.8 725.45,725.46 0,213.01 -91.81,404.58 -238.02,537.3" />
    </clipPath>
    <clipPath
       id="clipPath608"
       clipPathUnits="userSpaceOnUse">
      <path
         id="path606"
         d="m 1772.53,2537.02 c 49.3,83.88 77.69,181.54 77.69,285.87 0,312.11 -253.02,565.13 -565.13,565.13 -312.113,0 -565.129,-253.02 -565.129,-565.13 0,-104.34 28.387,-201.99 77.691,-285.88 C 651.449,2404.3 559.641,2212.73 559.641,1999.7 c 0,-400.6 324.797,-725.4 725.459,-725.4 400.65,0 725.45,324.8 725.45,725.4 0,213.04 -91.81,404.6 -238.02,537.32" />
    </clipPath>
    <clipPath
       id="clipPath1362"
       clipPathUnits="userSpaceOnUse">
      <path
         id="path1360"
         d="m 11294,7722.53 c 49.3,83.88 77.7,181.53 77.7,285.86 0,312.12 -253,565.14 -565.1,565.14 -312.2,0 -565.2,-253.02 -565.2,-565.14 0,-104.33 28.4,-201.98 77.7,-285.87 -146.2,-132.71 -238,-324.28 -238,-537.29 0,-400.66 324.8,-725.46 725.5,-725.46 400.6,0 725.4,324.8 725.4,725.46 0,213.01 -91.8,404.58 -238,537.3" />
    </clipPath>
    <clipPath
       id="clipPath306"
       clipPathUnits="userSpaceOnUse">
      <path
         id="path304"
         d="m 7485.41,2546.75 c 49.3,83.88 77.69,181.53 77.69,285.87 0,312.11 -253.02,565.13 -565.13,565.13 -312.11,0 -565.13,-253.02 -565.13,-565.13 0,-104.34 28.39,-201.99 77.69,-285.88 -146.2,-132.71 -238.01,-324.28 -238.01,-537.29 0,-400.65 324.8,-725.45 725.45,-725.45 400.66,0 725.46,324.8 725.46,725.45 0,213.02 -91.81,404.58 -238.02,537.3" />
    </clipPath>
  </defs>
  <sodipodi:namedview
     inkscape:window-maximized="1"
     inkscape:window-y="27"
     inkscape:window-x="0"
     inkscape:window-height="713"
     inkscape:window-width="1366"
     showgrid="false"
     inkscape:document-rotation="0"
     inkscape:current-layer="layer1"
     inkscape:document-units="mm"
     inkscape:cy="662.283"
     inkscape:cx="522.605"
     inkscape:zoom="0.35"
     inkscape:pageshadow="2"
     inkscape:pageopacity="0.0"
     borderopacity="1.0"
     bordercolor="#666666"
     pagecolor="#ffffff"
     id="base" />
  <metadata
     id="metadata6285">
    <rdf:RDF>
      <cc:Work
         rdf:about="">
        <dc:format>image/svg+xml</dc:format>
        <dc:type
           rdf:resource="http://purl.org/dc/dcmitype/StillImage" />
        <dc:title></dc:title>
      </cc:Work>
    </rdf:RDF>
  </metadata>
  <g
     id="layer1"
     inkscape:groupmode="layer"
     inkscape:label="Слой 1">
    <g
       id="g300"
       transform="matrix(0.15531208,0,0,-0.15531208,-988.96266,508.61845)">
      <g
         clip-path="url(#clipPath306)"
         id="g302">
        <path
           id="path308"
           style="fill:#c8c7c5;fill-opacity:1;fill-rule:nonzero;stroke:none"
           d="m 7284.19,2676.27 c -6.27,2.69 -12.6,5.3 -18.93,7.8 14.42,114.22 -3.86,313.17 -259.91,347.38 -18.7,2.5 -36.18,3.69 -52.47,3.69 -28.09,0 -52.73,-3.54 -74.27,-9.95 29.19,35.1 74.58,61.62 129.18,61.62 36.6,0 77.36,-11.92 120.13,-41.17 58.54,-40.03 83.72,-67.07 107.01,-67.07 7.45,0 14.71,2.76 22.8,8.75 3.3,2.45 7.14,3.59 10.88,3.59 7.79,0 15.12,-4.98 16.2,-13.48 5.27,-41.88 -2.6,-77.85 -20.22,-106.7 28.36,-67.28 27.23,-141.39 19.6,-194.46" />
        <path
           id="path310"
           style="fill:#ba862f;fill-opacity:1;fill-rule:nonzero;stroke:none"
           d="m 6640.33,1378.1 c -54.5,31 -104.6,68.8 -149.13,112.3 h -0.02 c -0.21,0.2 -0.4,0.4 -0.61,0.6 -0.13,0.1 -0.26,0.2 -0.38,0.3 -0.1,0.1 -0.21,0.2 -0.31,0.3 -1.56,1.6 -3.13,3.1 -4.69,4.7 -0.24,38.2 -0.01,76.3 0.86,113 16.7,185 46.36,357.4 72.36,509.51 7.35,43.01 37.17,66.25 82.94,84.71 -32.63,-17.48 -53.05,-40.05 -59.46,-77.57 -25.84,-151.15 59.76,-217.75 61.49,-217.75 0.01,0 0.02,0 0.02,0 0,0 2.13,-202.9 2.3,-413.1 -1.06,-6.8 -2.15,-13.8 -3.27,-21 -0.75,-32.7 -1.45,-64.9 -2.1,-96 m 716.84,0.9 c -0.82,244.3 2.17,529.2 2.17,529.2 0,0 0.01,0 0.02,0 1.74,0 87.33,66.6 61.49,217.75 -13.56,79.37 -89.84,91.85 -211.7,130.72 l 0.21,6.3 -84.82,43.64 -0.03,-0.12 v 0.12 h -22.3 v 36.09 c 114.94,46.25 123.18,175.03 125.9,224.15 15.76,6.04 26.96,21.31 26.96,39.2 v 24.41 c 3.64,13.8 7.49,32.23 10.19,53.61 6.33,-2.5 12.66,-5.11 18.93,-7.8 -2.59,-18.02 -5.93,-33.62 -9.12,-45.7 v -24.52 c 0,-17.87 -11.22,-33 -26.95,-39.06 -2.71,-48.92 -10.84,-177.87 -125.91,-224.22 v -36.16 h 22.3 v -0.12 l 0.02,0.12 84.84,-43.64 -0.22,-6.25 c 87.38,-27.86 151.33,-42.39 185.47,-77.56 l 0.08,0.08 c 85.42,-80.63 176.67,-183.84 232.62,-297.74 24.94,-50.8 31.87,-93.9 29.16,-129.3 -2.62,-6.9 -5.37,-13.9 -8.21,-20.7 -13.09,-31.5 -28.32,-61.9 -45.54,-91 -0.9,-0.8 -1.78,-1.5 -2.64,-2.2 -30.33,-24.7 -110.15,-28.5 -173.32,-28.5 -27.61,0 -52.04,0.8 -67.77,0.8 h -1.69 c -0.27,-70.7 -0.39,-146.8 -0.18,-219.8 -6.58,-4 -13.24,-7.9 -19.96,-11.8 m 22.17,529.2 c 0,0 -0.54,-51.2 -1.1,-128.8 25.81,-2 56.63,-4.1 80.95,-4.1 19.78,0 35.26,1.4 40.24,5.4 0.56,0.5 9.53,9 -13.02,34.1 -35.17,39.2 -68.96,68.4 -103.16,96.3 -2.27,-1.9 -3.68,-2.9 -3.89,-2.9 -0.01,0 -0.02,0 -0.02,0 m -565.27,355.13 64.11,32.98 v -16.26 l -9.11,-3.94 0.19,-6.52 -3,12.14 c -18.14,-6.82 -35.55,-12.88 -52.19,-18.4" />
        <path
           id="path312"
           style="fill:#2d2b35;fill-opacity:1;fill-rule:nonzero;stroke:none"
           d="m 6878.18,2202.12 h 246.332 v 104.488 H 6878.18 Z" />
        <path
           id="path314"
           style="fill:#f1a461;fill-opacity:1;fill-rule:nonzero;stroke:none"
           d="m 7133.62,2275.24 -31.41,14.49 v 99.85 h -201.6 v -99.85 l -31.54,-13.62 8.4,-283.21 h 23.14 v -43.4 h 201.6 v 43.4 h 23.01 l 8.4,282.34" />
        <path
           id="path316"
           style="fill:#d36c3b;fill-opacity:1;fill-rule:nonzero;stroke:none"
           d="m 7102.21,2296.35 -201.6,25.4 v 24.32 c 27.74,-12.61 62.12,-20.22 104.74,-20.22 38.67,0 70.56,6.27 96.86,16.85 v -46.35" />
        <path
           id="path318"
           style="fill:#ffffff;fill-opacity:1;fill-rule:nonzero;stroke:none"
           d="m 6866.28,2274.58 7.49,-28.13 c 12.96,-37.13 46.19,-97.87 125.1,-97.87 89.02,0 122.99,77.32 133.52,110.82 l 4.05,15.18 c 163.97,-61.6 113.66,-575.08 113.66,-575.08 l 1.03,-426.5 -250.18,-0.1 -263.61,0.1 6.87,426.5 c 0,0 -41.91,513.48 122.07,575.08" />
        <path
           id="path320"
           style="fill:#94231e;fill-opacity:1;fill-rule:nonzero;stroke:none"
           d="m 6952.85,2162.46 19.35,-37.06 h 58.89 l 18.8,37.06 -48.52,39.66 -48.52,-39.66" />
        <path
           id="path322"
           style="fill:#e9eae9;fill-opacity:1;fill-rule:nonzero;stroke:none"
           d="m 7001.36,2202.12 62,-65.28 106.01,126.48 -66.16,32.95 -24.88,-23.03 -76.97,-71.12" />
        <path
           id="path324"
           style="fill:#e9eae9;fill-opacity:1;fill-rule:nonzero;stroke:none"
           d="m 6899.47,2296.24 101.89,-94.11 -62,-65.32 -105.99,126.55 66.1,32.88" />
        <path
           id="path326"
           style="fill:#94231e;fill-opacity:1;fill-rule:nonzero;stroke:none"
           d="m 6972.2,2116.54 -23.97,-771.74 53.14,-58.8 53.14,58.8 -23.42,771.74 h -58.89" />
        <path
           id="path328"
           style="fill:#2d2b35;fill-opacity:1;fill-rule:nonzero;stroke:none"
           d="m 6581.89,2125.95 c 16.08,94.14 120.4,94.17 284.37,155.78 l 135.11,-546.83 135.11,546.83 c 163.97,-61.61 268.29,-61.64 284.37,-155.78 26,-152.15 -60.85,-218.55 -61.51,-217.75 0,0 -7.09,-675.3 3.55,-838.1 h -336.32 l -25.2,117.6 -25.2,-117.6 h -336.32 c 10.64,162.8 3.55,838.1 3.55,838.1 -0.66,-0.8 -87.51,65.6 -61.51,217.75" />
        <path
           id="path330"
           style="fill:#484547;fill-opacity:1;fill-rule:nonzero;stroke:none"
           d="m 7209.36,2262.97 -3.28,-96.32 -48.11,-39.57 37.44,-51.18 -192.77,-341 121.9,571.71 84.82,-43.64" />
        <path
           id="path332"
           style="fill:#484547;fill-opacity:1;fill-rule:nonzero;stroke:none"
           d="m 6793.38,2262.97 3.28,-96.32 48.11,-39.57 -37.44,-51.18 192.77,-341 -121.89,571.71 -84.83,-43.64" />
        <path
           id="path334"
           style="fill:#6b6a6d;fill-opacity:1;fill-rule:nonzero;stroke:none"
           d="m 7286.97,1616 v 254.6 c 0,27.6 -22.38,50 -49.99,50 h -101.61 c -27.61,0 -50,-22.4 -50,-50 V 1616 c 0,-27.6 22.39,-50 50,-50 h 101.61 c 27.61,0 49.99,22.4 49.99,50" />
        <path
           id="path336"
           style="fill:#515154;fill-opacity:1;fill-rule:nonzero;stroke:none"
           d="m 7106.51,1576.6 c -12.76,9.6 -21.14,24.7 -21.14,41.9 v 249.6 c 0,29 23.51,52.5 52.5,52.5 h 96.61 c 17.18,0 32.29,-8.4 41.86,-21.1 -8.77,6.5 -19.55,10.6 -31.37,10.6 h -96.6 c -28.99,0 -52.5,-23.5 -52.5,-52.5 V 1608 c 0,-11.8 4.05,-22.6 10.64,-31.4" />
        <path
           id="path338"
           style="fill:#33303e;fill-opacity:1;fill-rule:nonzero;stroke:none"
           d="m 7202.3,1875.1 v 1.5 c 0,8.5 -6.91,15.4 -15.36,15.4 h -1.53 c -8.45,0 -15.36,-6.9 -15.36,-15.4 v -1.5 c 0,-8.5 6.91,-15.4 15.36,-15.4 h 1.53 c 8.45,0 15.36,6.9 15.36,15.4" />
        <path
           id="path340"
           style="fill:#2d2b35;fill-opacity:1;fill-rule:nonzero;stroke:none"
           d="m 6771.52,2250.29 c -127.64,-39.82 -219.41,-51.31 -233.11,-131.48 -26,-152.11 -55.66,-324.51 -72.36,-509.51 -5.69,-241 16.11,-541.5 16.11,-541.5 h 132.05 c 0.75,1.3 3.29,192.5 8.22,406.3 24.19,155.7 35.63,224.5 36.3,225.4 l 141.74,450.71 c -2.17,4.55 -17.45,72.44 -28.95,100.08" />
        <path
           id="path342"
           style="fill:#f1a461;fill-opacity:1;fill-rule:nonzero;stroke:none"
           d="m 7244.24,1773.2 c 0,0 39.54,-4.4 70.24,-6.7 7.64,-0.5 15.27,-0.9 22.43,-1.4 7.08,-0.2 13.69,-0.4 19.36,-0.5 11.14,0 18.58,0 18.58,0 l 2.94,-125.9 c 0,0 -9.32,-0.1 -23.29,-0.1 -6.82,0.2 -14.77,0.4 -23.29,0.7 -8.34,0.5 -17.25,1 -26.15,1.6 -35.28,2.6 -77.53,7.4 -77.53,7.4 -27.13,3.5 -43.82,35.2 -38.07,69.3 5.81,34.5 30.4,58.8 54.78,55.6" />
        <path
           id="path344"
           style="fill:#f1a461;fill-opacity:1;fill-rule:nonzero;stroke:none"
           d="m 7286.16,1805.7 c 20.83,-2.3 37,-17.1 49.18,-31.8 11.97,-14.4 19.8,-28.9 20.41,-30.1 4.87,-9.1 3.74,-22.5 -3.24,-29.4 -6.93,-6.8 -16.89,-5 -21.63,4.5 -0.1,0.2 -1.53,3 -4.03,7 -2.5,4 -6.05,9.3 -10.41,14.7 -8.76,10.8 -20.56,21.8 -34.81,23.4 -8.23,0.9 -13.74,11 -12.31,22.5 1.44,11.5 8.97,20.1 16.84,19.2" />
        <path
           id="path346"
           style="fill:#2d2b35;fill-opacity:1;fill-rule:nonzero;stroke:none"
           d="m 7359,1610.6 c 51.72,0 197.5,-7.8 241.09,27.7 30.63,24.9 94.58,106.1 27.23,243.2 -55.95,113.9 -147.2,217.11 -232.62,297.74 l -150.36,-167.99 c 79.27,-74.85 147.56,-113.55 222.07,-196.45 22.55,-25.1 13.58,-33.6 13.02,-34.1 -11.92,-9.7 -83.93,-4.3 -131.16,-0.5 l -12.11,-167.5 c 15.6,-1.2 6.54,-2.1 22.84,-2.1" />
        <path
           id="path348"
           style="fill:#f1a461;fill-opacity:1;fill-rule:nonzero;stroke:none"
           d="m 7223.08,2690.39 6.82,88.71 c 0,116.01 -110.88,210 -226.8,210 -116,0 -226.8,-93.99 -226.8,-210 l 6.82,-88.62 c -6.49,-1.56 -12.34,-4.54 -17.23,-8.73 -9.07,-7.73 -14.79,-19.16 -14.79,-32.01 v -43.68 c 0,-23.09 18.6,-41.83 41.74,-41.97 0,-109.54 131.62,-213.39 210.26,-213.39 78.64,0 210.26,103.83 210.26,213.38 23.06,0.16 41.71,18.87 41.71,41.97 v 43.68 c 0,19.73 -13.66,36.16 -31.99,40.66" />
        <path
           id="path350"
           style="fill:#ec8349;fill-opacity:1;fill-rule:nonzero;stroke:none"
           d="m 7140.36,2499.5 c -5,0 -10.03,1.02 -14.76,3.04 -20.04,8.57 -64.81,16.25 -120.25,16.25 -0.77,0 -1.52,0 -2.28,-0.01 v 12.52 h -50.4 c 0,0 19.76,94.44 50.4,159.6 l 0.02,158.1 c 0.75,0 1.51,0 2.26,-0.01 29.55,0.07 62.9,2.74 95.04,10.79 7.12,1.78 14.48,2.63 21.87,2.63 38.61,0 78.2,-23.33 88.65,-60.17 25.16,-88.65 -8.3,-209.31 -8.3,-209.31 0,-27.55 -16.94,-68.34 -40.97,-86.42 -6.23,-4.68 -13.71,-7.01 -21.28,-7.01 m -41.5,176.42 c -0.39,0 -0.78,0 -1.18,-0.02 -18.31,-0.64 -32.63,-16 -31.99,-34.31 0.62,-17.92 15.34,-32.01 33.13,-32.01 0.39,0 0.79,0 1.18,0.02 18.31,0.64 32.63,16 31.99,34.31 -0.62,17.91 -15.34,32.01 -33.13,32.01 m 129.25,-109.07 c 0.57,10.21 0.89,16.98 1.89,18.85 0.08,0 17.77,20.38 21.88,33.61 1.02,3.27 2.09,7 3.19,11.15 v -24.41 c 0,-17.89 -11.2,-33.16 -26.96,-39.2" />
        <path
           id="path352"
           style="fill:#352018;fill-opacity:1;fill-rule:nonzero;stroke:none"
           d="m 7202.61,2592.93 c 0,-27.55 -16.94,-68.34 -40.97,-86.42 -10.34,-7.77 -24.15,-9.05 -36.04,-3.97 -20.04,8.57 -64.81,16.25 -120.25,16.25 -55.45,0 -100.22,-7.68 -120.26,-16.25 -11.89,-5.08 -25.71,-3.8 -36.03,3.97 -24.04,18.08 -40.98,58.87 -40.98,86.42 0,0 -33.47,120.66 -8.3,209.31 12.46,43.89 66.26,68.61 110.52,57.54 32.13,-8.05 65.49,-10.72 95.05,-10.79 29.55,0.07 62.9,2.74 95.04,10.79 44.25,11.07 98.06,-13.65 110.52,-57.54 25.16,-88.65 -8.3,-209.31 -8.3,-209.31 m -197.26,438.52 c -338.78,45.27 -269.14,-339.83 -246.54,-412.14 4.11,-13.23 21.8,-33.61 21.88,-33.61 6.89,-12.9 -18.23,-259.85 224.66,-259.85 242.88,0 217.76,246.95 224.65,259.85 0.08,0 17.77,20.38 21.88,33.61 22.59,72.31 71.87,369.6 -246.53,412.14" />
        <path
           id="path354"
           style="fill:#352018;fill-opacity:1;fill-rule:nonzero;stroke:none"
           d="m 7107.92,3045.64 c 77.26,-52.83 96.41,-83.04 129.81,-58.32 10.19,7.55 25.49,2.69 27.07,-9.89 22.91,-181.9 -199.69,-253.98 -410.89,-103.36 -99.05,70.65 55.77,307.11 254.01,171.57" />
        <path
           id="path356"
           style="fill:#f1a461;fill-opacity:1;fill-rule:nonzero;stroke:none"
           d="m 6948.2,2472.7 h 109.85 c 3.47,0 5.22,-4.3 2.65,-6.62 -7.87,-7.13 -24.91,-17.44 -57.57,-17.44 -32.67,0 -49.7,10.31 -57.57,17.44 -2.58,2.32 -0.83,6.62 2.64,6.62" />
        <path
           id="path358"
           style="fill:#e97a43;fill-opacity:1;fill-rule:nonzero;stroke:none"
           d="m 6905.62,2609.58 c -17.79,0 -32.51,14.09 -33.13,32.01 -0.64,18.31 13.68,33.67 31.99,34.31 0.4,0.02 0.79,0.02 1.18,0.02 17.79,0 32.51,-14.1 33.14,-32.01 0.64,-18.31 -13.69,-33.67 -32,-34.31 -0.39,-0.02 -0.79,-0.02 -1.18,-0.02" />
        <path
           id="path360"
           style="fill:#352018;fill-opacity:1;fill-rule:nonzero;stroke:none"
           d="m 6938.8,2652.31 c 0.64,-18.31 -13.69,-33.68 -32,-34.32 -18.31,-0.64 -33.67,13.69 -34.31,32 -0.64,18.31 13.68,33.67 31.99,34.31 18.31,0.64 33.68,-13.68 34.32,-31.99" />
        <path
           id="path362"
           style="fill:#ffffff;fill-opacity:1;fill-rule:nonzero;stroke:none"
           d="m 6925.19,2661.79 c 0.16,-4.58 -3.42,-8.42 -8,-8.58 -4.57,-0.16 -8.41,3.42 -8.57,8 -0.16,4.58 3.42,8.42 7.99,8.58 4.58,0.16 8.42,-3.42 8.58,-8" />
        <path
           id="path364"
           style="fill:#e36236;fill-opacity:1;fill-rule:nonzero;stroke:none"
           d="m 7098.82,2609.58 c -17.79,0 -32.51,14.09 -33.13,32.01 -0.64,18.31 13.68,33.67 31.99,34.31 0.4,0.02 0.79,0.02 1.18,0.02 17.79,0 32.51,-14.1 33.13,-32.01 0.64,-18.31 -13.68,-33.67 -31.99,-34.31 -0.39,-0.02 -0.79,-0.02 -1.18,-0.02" />
        <path
           id="path366"
           style="fill:#352018;fill-opacity:1;fill-rule:nonzero;stroke:none"
           d="m 7132,2652.31 c 0.64,-18.31 -13.69,-33.68 -32,-34.32 -18.31,-0.64 -33.67,13.69 -34.31,32 -0.64,18.31 13.68,33.67 31.99,34.31 18.31,0.64 33.68,-13.68 34.32,-31.99" />
        <path
           id="path368"
           style="fill:#ffffff;fill-opacity:1;fill-rule:nonzero;stroke:none"
           d="m 7118.39,2661.79 c 0.16,-4.58 -3.42,-8.42 -8,-8.58 -4.57,-0.16 -8.41,3.42 -8.57,8 -0.16,4.58 3.42,8.42 7.99,8.58 4.58,0.16 8.42,-3.42 8.58,-8" />
        <path
           id="path370"
           style="fill:#2d2b35;fill-opacity:1;fill-rule:nonzero;stroke:none"
           d="m 7127.32,2590.94 c -60.7,0 -79.73,31.86 -89.65,79.7 -2.29,11.02 -0.43,20.31 5.51,27.6 8.39,10.32 29.81,22.62 84.14,22.62 78.74,0 78.74,-39.08 78.74,-51.93 0,-40.5 -9.54,-77.99 -78.74,-77.99 z m -164.26,79.7 c -9.92,-47.84 -28.96,-79.7 -89.65,-79.7 -69.21,0 -78.75,37.49 -78.75,77.99 0,12.85 0,51.93 78.75,51.93 54.33,0 75.74,-12.3 84.14,-22.62 5.94,-7.29 7.79,-16.58 5.51,-27.6 z m 272.34,54.68 h -45.46 c -14.37,7.54 -34.48,12.34 -62.62,12.34 -46.81,0 -78.58,-8.97 -94.88,-26.49 -7.71,4.24 -19.22,9.06 -32.24,9.06 -12.9,0 -24.32,-4.73 -32.03,-8.94 -16.34,17.44 -48.06,26.37 -94.76,26.37 -28.15,0 -48.26,-4.8 -62.63,-12.34 H 6765 v -32.74 l 15.03,-5.28 c -1.54,-6.14 -2.17,-12.36 -2.17,-18.37 0,-40.69 9.91,-94.79 95.55,-94.79 76.49,0 96.55,47.06 106.09,93.09 1.45,6.98 1.6,13.63 0.64,19.87 3.73,2.38 9.88,4.47 20.06,4.47 10.44,0 16.66,-2.19 20.36,-4.65 -0.93,-6.19 -0.77,-12.78 0.66,-19.69 9.54,-46.03 29.61,-93.09 106.1,-93.09 85.64,0 95.54,54.1 95.54,94.79 0,6.04 -0.64,12.3 -2.19,18.48 l 14.73,5.17 v 32.74" />
      </g>
    </g>
  </g>
</svg>
