<?xml version="1.0" encoding="UTF-8" standalone="no"?>
<svg
   xmlns:dc="http://purl.org/dc/elements/1.1/"
   xmlns:cc="http://creativecommons.org/ns#"
   xmlns:rdf="http://www.w3.org/1999/02/22-rdf-syntax-ns#"
   xmlns:svg="http://www.w3.org/2000/svg"
   xmlns="http://www.w3.org/2000/svg"
   xmlns:sodipodi="http://sodipodi.sourceforge.net/DTD/sodipodi-0.dtd"
   xmlns:inkscape="http://www.inkscape.org/namespaces/inkscape"
   sodipodi:docname="5.svg"
   inkscape:version="1.0 (6e3e5246a0, 2020-05-07)"
   id="svg6290"
   version="1.1"
   viewBox="0 0 210 297"
   height="297mm"
   width="210mm">
  <defs
     id="defs6284">
    <clipPath
       id="clipPath2620"
       clipPathUnits="userSpaceOnUse">
      <path
         id="path2618"
         d="m 1771.7,10317.7 c 49.3,83.9 77.69,181.6 77.69,285.9 0,312.1 -253.02,565.1 -565.13,565.1 -312.115,0 -565.131,-253 -565.131,-565.1 0,-104.3 28.391,-202 77.691,-285.9 -146.203,-132.7 -238.007,-324.27 -238.007,-537.28 0,-400.66 324.792,-725.46 725.457,-725.46 400.65,0 725.45,324.8 725.45,725.46 0,213.01 -91.81,404.58 -238.02,537.28" />
    </clipPath>
  </defs>
  <sodipodi:namedview
     inkscape:window-maximized="1"
     inkscape:window-y="27"
     inkscape:window-x="0"
     inkscape:window-height="713"
     inkscape:window-width="1366"
     showgrid="false"
     inkscape:document-rotation="0"
     inkscape:current-layer="layer1"
     inkscape:document-units="mm"
     inkscape:cy="560"
     inkscape:cx="400"
     inkscape:zoom="0.35"
     inkscape:pageshadow="2"
     inkscape:pageopacity="0.0"
     borderopacity="1.0"
     bordercolor="#666666"
     pagecolor="#ffffff"
     id="base" />
  <metadata
     id="metadata6287">
    <rdf:RDF>
      <cc:Work
         rdf:about="">
        <dc:format>image/svg+xml</dc:format>
        <dc:type
           rdf:resource="http://purl.org/dc/dcmitype/StillImage" />
        <dc:title></dc:title>
      </cc:Work>
    </rdf:RDF>
  </metadata>
  <g
     id="layer1"
     inkscape:groupmode="layer"
     inkscape:label="Слой 1">
    <g
       id="g2614"
       transform="matrix(0.15732635,0,0,-0.15732635,-108.80292,1732.5812)">
      <g
         clip-path="url(#clipPath2620)"
         id="g2616">
        <path
           id="path2622"
           style="fill:#c8c7c5;fill-opacity:1;fill-rule:nonzero;stroke:none"
           d="m 1545.95,10457.2 c -11.79,4.6 -23.63,8.8 -35.6,12.7 l 5.37,69.7 v 0 c 0,116 -110.88,210 -226.8,210 -116.01,0 -226.8,-94 -226.8,-210 l 5.14,-66.8 c -0.83,-0.2 -1.62,-0.5 -2.45,-0.8 -27.18,104.7 -44.91,282.1 130.18,322.5 32.06,23.8 73.49,40.2 118.45,40.2 31.91,0 65.61,-8.3 98.98,-27.9 74.6,-43.9 88.45,-58.6 121.37,-58.6 2.67,0 5.47,0.1 8.44,0.2 3.89,0.3 7.79,0.7 11.39,0.7 8.09,0 14.59,-1.8 15.68,-10.5 5.17,-41.1 -2.25,-76.4 -19.12,-105 15.26,-62.4 6.56,-129.2 -4.23,-176.4" />
        <path
           id="path2624"
           style="fill:#9484ad;fill-opacity:1;fill-rule:nonzero;stroke:none"
           d="m 926.621,9149.1 c -56.961,32.34 -109.133,72.18 -155.141,118.16 -0.238,38.21 -0.007,76.33 0.864,113.05 16.691,184.91 46.355,357.32 72.355,509.47 7.352,43.01 37.168,66.25 82.942,84.7 -32.633,-17.47 -53.055,-40.04 -59.465,-77.56 -25.836,-151.19 59.765,-217.75 61.492,-217.75 0.012,0 0.02,0.01 0.023,0.01 0,0 2.129,-202.91 2.301,-413.09 -1.062,-6.83 -2.152,-13.84 -3.269,-21.04 -0.754,-32.7 -1.453,-64.89 -2.102,-95.95 m 716.839,0.89 c -0.82,244.31 2.17,529.19 2.17,529.19 0,0 0.01,-0.01 0.02,-0.01 1.74,0.01 87.33,66.56 61.5,217.75 -13.57,79.37 -89.85,91.84 -211.71,130.68 l 0.21,6.3 -84.83,43.7 -0.02,-0.1 v 0.1 h -22.3 v 71.2 c 56.68,38.8 107.64,102.9 110.55,169.8 0.01,0.3 0.02,0.5 0.03,0.8 0,0.1 0.01,0.2 0.01,0.4 0.02,0.5 0.04,1.1 0.05,1.6 0.03,1.1 0.04,2.2 0.04,3.2 v 0 c 23.05,0.2 41.7,18.9 41.7,42 v 43.7 0 c 0,19.7 -13.65,36.1 -31.99,40.6 l 1.46,19 c 11.97,-3.9 23.81,-8.1 35.6,-12.7 -1.01,-4.4 -2.04,-8.7 -3.08,-12.7 10.85,-7.6 18.01,-20 18.01,-34.2 v -43.7 c 0,-23.1 -18.65,-41.8 -41.7,-42 0,-5.6 -0.43,-11.2 -1.1,-16.8 -0.94,-7.9 -2.47,-15.7 -4.63,-23.5 l -0.08,-0.3 c -15.17,-53.9 -58.08,-103.1 -104.87,-135.1 v -71.3 h 22.3 v -0.1 l 0.03,0.1 84.82,-43.7 -0.21,-6.2 c 87.37,-27.88 151.33,-42.4 185.47,-77.58 l 0.08,0.09 c 85.42,-80.63 176.67,-183.85 232.62,-297.74 24.94,-50.77 31.87,-93.87 29.16,-129.29 -2.47,-6.53 -5.04,-13.05 -7.71,-19.52 -13.19,-31.94 -28.6,-62.74 -46.04,-92.19 -0.9,-0.79 -1.78,-1.53 -2.64,-2.23 -30.34,-24.69 -110.16,-28.44 -173.34,-28.44 -27.6,0 -52.02,0.72 -67.75,0.72 h -1.69 c -0.27,-70.67 -0.39,-146.74 -0.18,-219.71 -6.58,-4.04 -13.24,-7.99 -19.96,-11.82 m 22.17,529.19 c 0,0 -0.54,-51.22 -1.09,-128.79 25.8,-2.02 56.62,-4.17 80.93,-4.17 19.78,0 35.27,1.42 40.25,5.48 0.56,0.45 9.53,9.01 -13.02,34.1 -35.17,39.13 -68.96,68.39 -103.16,96.26 -2.27,-1.93 -3.68,-2.89 -3.89,-2.89 -0.01,0 -0.02,0.01 -0.02,0.01 m -565.28,355.12 64.12,33 v -16.3 l -9.11,-3.9 0.19,-6.5 -3,12.1 c -18.14,-6.8 -35.55,-12.9 -52.2,-18.4 m -32.04,424.8 c -1.17,4.2 -2.35,8.5 -3.5,12.9 0.83,0.3 1.62,0.6 2.45,0.8 l 1.05,-13.7" />
        <path
           id="path2626"
           style="fill:#2d2b35;fill-opacity:1;fill-rule:nonzero;stroke:none"
           d="m 1164.47,9973.09 h 246.332 v 104.48 H 1164.47 Z" />
        <path
           id="path2628"
           style="fill:#f1a461;fill-opacity:1;fill-rule:nonzero;stroke:none"
           d="m 1419.91,10046.2 -31.41,14.5 v 99.9 h -201.6 v -99.9 l -31.54,-13.6 8.39,-283.21 h 23.15 v -43.42 h 201.6 v 43.42 h 23.01 l 8.4,282.31" />
        <path
           id="path2630"
           style="fill:#d36c3b;fill-opacity:1;fill-rule:nonzero;stroke:none"
           d="m 1388.5,10067.3 -201.6,46.4 v 36.8 c 34.91,-24.4 72.23,-39.3 101.98,-39.3 v 0 c 0.01,0 0.01,0 0.02,0 0,0 0.01,0 0.02,0 29.06,0 65.36,14.2 99.58,37.6 v -81.5" />
        <path
           id="path2632"
           style="fill:#ffffff;fill-opacity:1;fill-rule:nonzero;stroke:none"
           d="m 1152.56,10045.6 7.5,-28.2 c 12.96,-37.12 46.19,-97.85 125.1,-97.85 89.03,0 122.99,77.32 133.53,110.85 l 4.04,15.2 c 163.97,-61.66 113.66,-575.16 113.66,-575.16 l 1.03,-426.5 -250.18,-0.05 -263.6,0.05 6.86,426.5 c 0,0 -41.902,513.5 122.06,575.16" />
        <path
           id="path2634"
           style="fill:#94231e;fill-opacity:1;fill-rule:nonzero;stroke:none"
           d="m 1239.14,9933.43 19.35,-37.07 h 58.89 l 18.8,37.07 -48.52,39.66 -48.52,-39.66" />
        <path
           id="path2636"
           style="fill:#e9eae9;fill-opacity:1;fill-rule:nonzero;stroke:none"
           d="m 1287.65,9973.09 62,-65.28 106.01,126.49 -66.16,32.9 -24.88,-23 -76.97,-71.11" />
        <path
           id="path2638"
           style="fill:#e9eae9;fill-opacity:1;fill-rule:nonzero;stroke:none"
           d="m 1185.76,10067.2 101.89,-94.1 -62,-65.32 -105.99,126.52 66.1,32.9" />
        <path
           id="path2640"
           style="fill:#94231e;fill-opacity:1;fill-rule:nonzero;stroke:none"
           d="m 1258.49,9887.5 -23.97,-771.78 53.14,-58.74 53.14,58.74 -23.42,771.78 h -58.89" />
        <path
           id="path2642"
           style="fill:#2d2b35;fill-opacity:1;fill-rule:nonzero;stroke:none"
           d="m 868.176,9896.92 c 16.09,94.14 120.406,94.17 284.374,155.78 l 135.11,-546.85 135.11,546.85 c 163.97,-61.61 268.29,-61.64 284.38,-155.78 26,-152.15 -60.86,-218.59 -61.52,-217.74 0,0 -7.09,-675.3 3.55,-838.1 l -336.32,-0.04 -25.2,117.59 -25.2,-117.59 -336.319,0.04 c 10.636,162.8 3.55,838.1 3.55,838.1 -0.664,-0.85 -87.515,65.59 -61.515,217.74" />
        <path
           id="path2644"
           style="fill:#484547;fill-opacity:1;fill-rule:nonzero;stroke:none"
           d="m 1495.65,10033.9 -3.28,-96.29 -48.1,-39.57 37.43,-51.17 -192.77,-341.02 121.89,571.75 84.83,-43.7" />
        <path
           id="path2646"
           style="fill:#484547;fill-opacity:1;fill-rule:nonzero;stroke:none"
           d="m 1079.66,10033.9 3.29,-96.29 48.1,-39.57 -37.43,-51.17 192.77,-341.02 -121.89,571.75 -84.84,-43.7" />
        <path
           id="path2648"
           style="fill:#605f6e;fill-opacity:1;fill-rule:nonzero;stroke:none"
           d="m 1573.26,9386.94 v 254.61 c 0,27.62 -22.38,50 -50,50 h -101.6 c -27.61,0 -50,-22.38 -50,-50 v -254.61 c 0,-27.61 22.39,-50 50,-50 h 101.6 c 27.62,0 50,22.39 50,50" />
        <path
           id="path2650"
           style="fill:#4b4855;fill-opacity:1;fill-rule:nonzero;stroke:none"
           d="m 1392.79,9347.57 c -12.75,9.58 -21.13,24.69 -21.13,41.87 v 249.61 c 0,29 23.51,52.5 52.5,52.5 h 96.6 c 17.18,0 32.3,-8.37 41.87,-21.13 -8.77,6.59 -19.55,10.63 -31.37,10.63 h -96.6 c -28.99,0 -52.5,-23.5 -52.5,-52.5 v -249.61 c 0,-11.82 4.05,-22.6 10.63,-31.37" />
        <path
           id="path2652"
           style="fill:#33303e;fill-opacity:1;fill-rule:nonzero;stroke:none"
           d="m 1488.59,9646.05 v 1.54 c 0,8.45 -6.91,15.36 -15.36,15.36 h -1.53 c -8.45,0 -15.36,-6.91 -15.36,-15.36 v -1.54 c 0,-8.44 6.91,-15.36 15.36,-15.36 h 1.53 c 8.45,0 15.36,6.92 15.36,15.36" />
        <path
           id="path2654"
           style="fill:#2d2b35;fill-opacity:1;fill-rule:nonzero;stroke:none"
           d="m 1057.81,10021.3 c -127.642,-39.86 -219.408,-51.35 -233.111,-131.53 -26,-152.14 -55.664,-324.55 -72.355,-509.46 -5.699,-241.05 16.101,-541.53 16.101,-541.53 h 132.059 c 0.742,1.25 3.285,192.52 8.219,406.27 24.187,155.73 35.632,224.54 36.293,225.39 l 141.744,450.74 c -2.17,4.54 -17.45,72.43 -28.95,100.12" />
        <path
           id="path2656"
           style="fill:#f1a461;fill-opacity:1;fill-rule:nonzero;stroke:none"
           d="m 1530.53,9544.14 c 0,0 39.54,-4.4 70.24,-6.67 7.64,-0.46 15.27,-0.92 22.43,-1.36 7.08,-0.21 13.69,-0.41 19.35,-0.59 11.15,0.05 18.59,0.08 18.59,0.08 l 2.93,-125.97 c 0,0 -9.31,-0.04 -23.28,-0.1 -6.82,0.21 -14.77,0.45 -23.29,0.71 -8.34,0.51 -17.25,1.04 -26.15,1.58 -35.28,2.63 -77.53,7.44 -77.53,7.44 -27.13,3.55 -43.82,35.16 -38.07,69.33 5.81,34.44 30.4,58.73 54.78,55.55" />
        <path
           id="path2658"
           style="fill:#f1a461;fill-opacity:1;fill-rule:nonzero;stroke:none"
           d="m 1572.45,9576.72 c 20.83,-2.36 37,-17.12 49.18,-31.82 11.97,-14.45 19.8,-28.94 20.41,-30.14 4.87,-9.14 3.74,-22.47 -3.24,-29.37 -6.93,-6.82 -16.89,-4.98 -21.63,4.52 -0.1,0.19 -1.53,2.93 -4.03,6.96 -2.5,4.03 -6.05,9.34 -10.41,14.68 -8.76,10.81 -20.56,21.78 -34.81,23.41 -8.23,0.93 -13.74,11.01 -12.31,22.52 1.44,11.51 8.97,20.13 16.84,19.24" />
        <path
           id="path2660"
           style="fill:#2d2b35;fill-opacity:1;fill-rule:nonzero;stroke:none"
           d="m 1645.29,9381.52 c 51.72,0 197.5,-7.76 241.09,27.72 30.62,24.94 94.58,106.13 27.23,243.23 -55.95,113.89 -147.2,217.11 -232.62,297.74 l -150.36,-167.99 c 79.27,-74.84 147.56,-113.51 222.07,-196.42 22.55,-25.09 13.58,-33.65 13.02,-34.1 -11.92,-9.71 -83.93,-4.31 -131.17,-0.51 l -12.1,-167.52 c 15.6,-1.25 6.54,-2.15 22.84,-2.15" />
        <path
           id="path2662"
           style="fill:#f1a461;fill-opacity:1;fill-rule:nonzero;stroke:none"
           d="m 1508.89,10450.9 6.83,88.7 c 0,116 -110.88,210 -226.8,210 -116.01,0 -226.8,-94 -226.8,-210 l 6.81,-88.6 c -6.48,-1.6 -12.34,-4.5 -17.23,-8.7 -9.07,-7.8 -14.78,-19.2 -14.78,-32 v -43.7 c 0,-23.1 18.59,-41.8 41.74,-42 0,-109.5 131.62,-213.4 210.26,-213.4 78.64,0 210.26,103.9 210.26,213.4 23.05,0.2 41.7,18.9 41.7,42 v 43.7 c 0,19.7 -13.65,36.1 -31.99,40.6" />
        <path
           id="path2664"
           style="fill:#ce582f;fill-opacity:1;fill-rule:nonzero;stroke:none"
           d="m 1288.88,10111.2 v 0 c 0.01,0 0.01,0 0.02,0 -0.01,0 -0.01,0 -0.02,0" />
        <path
           id="path2666"
           style="fill:#8e6c84;fill-opacity:1;fill-rule:nonzero;stroke:none"
           d="m 1499.05,10318.6 c 0.01,0.3 0.02,0.5 0.03,0.8 -0.01,-0.3 -0.02,-0.5 -0.03,-0.8 m 0.04,1.2 c 0.02,0.5 0.04,1.1 0.05,1.6 -0.01,-0.5 -0.03,-1.1 -0.05,-1.6" />
        <path
           id="path2668"
           style="fill:#ed8449;fill-opacity:1;fill-rule:nonzero;stroke:none"
           d="m 1288.9,10111.2 c -0.01,0 -0.01,0 -0.02,0 v 163.8 h -50.4 c 0,0 19.76,94.5 50.4,159.6 l 0.04,315 c 115.92,0 226.8,-94 226.8,-210 l -6.83,-88.7 v 0 c 18.34,-4.5 31.99,-20.9 31.99,-40.6 v -43.7 c 0,-23.1 -18.65,-41.8 -41.7,-42 v 0 c 0,-1 -0.01,-2.1 -0.04,-3.2 -0.01,-0.5 -0.03,-1.1 -0.05,-1.6 0,-0.2 -0.01,-0.3 -0.01,-0.4 -0.01,-0.3 -0.02,-0.5 -0.03,-0.8 -4.66,-107.3 -132.88,-207.3 -210.15,-207.4 m 96.61,331.2 c -0.4,0 -0.79,0 -1.18,0 -18.32,-0.6 -32.64,-16 -32,-34.3 0.62,-17.9 15.34,-32 33.13,-32 0.39,0 0.78,0 1.18,0 18.31,0.7 32.64,16 32,34.3 -0.63,17.9 -15.35,32 -33.13,32" />
        <path
           id="path2670"
           style="fill:#ed8449;fill-opacity:1;fill-rule:nonzero;stroke:none"
           d="m 1192.26,10376.1 c -17.79,0 -32.51,14.1 -33.13,32 -0.64,18.3 13.68,33.7 31.99,34.3 0.4,0 0.79,0 1.18,0 17.79,0 32.51,-14.1 33.14,-32 0.63,-18.3 -13.69,-33.6 -32,-34.3 -0.39,0 -0.79,0 -1.18,0" />
        <path
           id="path2672"
           style="fill:#352018;fill-opacity:1;fill-rule:nonzero;stroke:none"
           d="m 1225.44,10418.8 c 0.64,-18.3 -13.69,-33.7 -32,-34.3 -18.31,-0.6 -33.67,13.7 -34.31,32 -0.64,18.3 13.68,33.7 31.99,34.3 18.31,0.6 33.68,-13.7 34.32,-32" />
        <path
           id="path2674"
           style="fill:#ffffff;fill-opacity:1;fill-rule:nonzero;stroke:none"
           d="m 1211.83,10411.5 c 0.16,-4.6 -3.42,-8.4 -8,-8.6 -4.57,-0.1 -8.41,3.4 -8.57,8 -0.16,4.6 3.42,8.4 7.99,8.6 4.58,0.2 8.42,-3.4 8.58,-8" />
        <path
           id="path2676"
           style="fill:#e66939;fill-opacity:1;fill-rule:nonzero;stroke:none"
           d="m 1385.46,10376.1 c -17.79,0 -32.51,14.1 -33.13,32 -0.64,18.3 13.68,33.7 32,34.3 0.39,0 0.78,0 1.18,0 17.78,0 32.5,-14.1 33.13,-32 0.64,-18.3 -13.69,-33.6 -32,-34.3 -0.4,0 -0.79,0 -1.18,0" />
        <path
           id="path2678"
           style="fill:#352018;fill-opacity:1;fill-rule:nonzero;stroke:none"
           d="m 1418.64,10418.8 c 0.64,-18.3 -13.69,-33.7 -32,-34.3 -18.31,-0.6 -33.67,13.7 -34.31,32 -0.64,18.3 13.68,33.7 31.99,34.3 18.31,0.6 33.68,-13.7 34.32,-32" />
        <path
           id="path2680"
           style="fill:#ffffff;fill-opacity:1;fill-rule:nonzero;stroke:none"
           d="m 1405.03,10411.5 c 0.16,-4.6 -3.42,-8.4 -8,-8.6 -4.57,-0.1 -8.41,3.4 -8.57,8 -0.16,4.6 3.42,8.4 7.99,8.6 4.58,0.2 8.42,-3.4 8.58,-8" />
        <path
           id="path2682"
           style="fill:#352018;fill-opacity:1;fill-rule:nonzero;stroke:none"
           d="m 1549.3,10738.6 c -1.58,12.6 -14.41,10.7 -27.07,9.8 -39.5,-2.4 -49.16,10.9 -129.81,58.4 -80.38,47.3 -162.62,28.4 -217.43,-12.3 -252.115,-58.2 -104.44,-400.4 -104.44,-400.4 0,0 -0.93,180.1 77.04,234.9 130.57,-89.1 263.99,-93.9 339.95,-41 29.31,-68.3 19.74,-193.9 19.74,-193.9 0,0 50.43,127 22.9,239.5 16.87,28.6 24.29,63.9 19.12,105" />
        <path
           id="path2684"
           style="fill:#352018;fill-opacity:1;fill-rule:nonzero;stroke:none"
           d="m 1415.43,10352 c -60.7,0 -79.74,31.9 -89.65,79.7 -2.28,11.1 2.41,16.2 8.35,23.5 8.39,10.3 26.97,18.3 81.3,18.3 78.74,0 78.74,-30.6 78.74,-43.5 0,-40.5 -9.54,-78 -78.74,-78 z m -163.94,79.7 c -9.91,-47.8 -28.95,-79.7 -89.65,-79.7 -69.2,0 -78.74,37.5 -78.74,78 0,12.9 0,43.5 78.74,43.5 54.33,0 72.91,-8 81.31,-18.3 5.93,-7.3 10.63,-12.4 8.34,-23.5 z m 272.35,54.7 h -45.79 c -14.37,7.5 -34.47,12.3 -62.62,12.3 -46.7,0 -78.43,-8.9 -94.76,-26.3 -7.72,4.2 -19.13,8.9 -32.03,8.9 -12.9,0 -24.32,-4.7 -32.03,-8.9 -16.34,17.4 -48.06,26.3 -94.77,26.3 -28.14,0 -48.25,-4.8 -62.62,-12.3 h -45.78 v -32.7 l 15.02,-5.3 c -1.54,-6.1 -2.16,-12.4 -2.16,-18.4 0,-40.7 9.9,-94.8 95.54,-94.8 76.5,0 96.56,47.1 106.1,93.1 1.45,7 1.6,13.6 0.63,19.9 3.74,2.4 9.89,4.5 20.07,4.5 10.17,0 16.33,-2.1 20.06,-4.5 -0.97,-6.3 -0.81,-12.9 0.63,-19.9 9.54,-46 29.6,-93.1 106.1,-93.1 85.64,0 95.54,54.1 95.54,94.8 0,6 -0.62,12.3 -2.16,18.4 l 15.03,5.3 v 32.7" />
      </g>
    </g>
  </g>
</svg>
