<?xml version="1.0" encoding="UTF-8" standalone="no"?>
<svg
   xmlns:dc="http://purl.org/dc/elements/1.1/"
   xmlns:cc="http://creativecommons.org/ns#"
   xmlns:rdf="http://www.w3.org/1999/02/22-rdf-syntax-ns#"
   xmlns:svg="http://www.w3.org/2000/svg"
   xmlns="http://www.w3.org/2000/svg"
   xmlns:sodipodi="http://sodipodi.sourceforge.net/DTD/sodipodi-0.dtd"
   xmlns:inkscape="http://www.inkscape.org/namespaces/inkscape"
   inkscape:version="1.0 (6e3e5246a0, 2020-05-07)"
   sodipodi:docname="6.svg"
   id="svg6288"
   version="1.1"
   viewBox="0 0 210 297"
   height="297mm"
   width="210mm">
  <defs
     id="defs6282">
    <clipPath
       id="clipPath1824"
       clipPathUnits="userSpaceOnUse">
      <path
         id="path1822"
         d="m 3676.82,7717.67 c 49.31,83.88 77.7,181.53 77.7,285.86 0,312.11 -253.02,565.13 -565.14,565.13 -312.11,0 -565.13,-253.02 -565.13,-565.13 0,-104.33 28.39,-201.99 77.7,-285.87 -146.21,-132.72 -238.01,-324.28 -238.01,-537.29 0,-400.66 324.79,-725.46 725.45,-725.46 400.66,0 725.45,324.8 725.45,725.46 0,213.01 -91.81,404.58 -238.02,537.3" />
    </clipPath>
    <clipPath
       id="clipPath608"
       clipPathUnits="userSpaceOnUse">
      <path
         id="path606"
         d="m 1772.53,2537.02 c 49.3,83.88 77.69,181.54 77.69,285.87 0,312.11 -253.02,565.13 -565.13,565.13 -312.113,0 -565.129,-253.02 -565.129,-565.13 0,-104.34 28.387,-201.99 77.691,-285.88 C 651.449,2404.3 559.641,2212.73 559.641,1999.7 c 0,-400.6 324.797,-725.4 725.459,-725.4 400.65,0 725.45,324.8 725.45,725.4 0,213.04 -91.81,404.6 -238.02,537.32" />
    </clipPath>
    <clipPath
       id="clipPath1362"
       clipPathUnits="userSpaceOnUse">
      <path
         id="path1360"
         d="m 11294,7722.53 c 49.3,83.88 77.7,181.53 77.7,285.86 0,312.12 -253,565.14 -565.1,565.14 -312.2,0 -565.2,-253.02 -565.2,-565.14 0,-104.33 28.4,-201.98 77.7,-285.87 -146.2,-132.71 -238,-324.28 -238,-537.29 0,-400.66 324.8,-725.46 725.5,-725.46 400.6,0 725.4,324.8 725.4,725.46 0,213.01 -91.8,404.58 -238,537.3" />
    </clipPath>
    <clipPath
       id="clipPath306"
       clipPathUnits="userSpaceOnUse">
      <path
         id="path304"
         d="m 7485.41,2546.75 c 49.3,83.88 77.69,181.53 77.69,285.87 0,312.11 -253.02,565.13 -565.13,565.13 -312.11,0 -565.13,-253.02 -565.13,-565.13 0,-104.34 28.39,-201.99 77.69,-285.88 -146.2,-132.71 -238.01,-324.28 -238.01,-537.29 0,-400.65 324.8,-725.45 725.45,-725.45 400.66,0 725.46,324.8 725.46,725.45 0,213.02 -91.81,404.58 -238.02,537.3" />
    </clipPath>
    <clipPath
       clipPathUnits="userSpaceOnUse"
       id="clipPath6278">
      <g
         id="use6280"
         inkscape:label="Clip">
        <g
           id="g7930"
           transform="matrix(0.03527778,0,0,-0.03527778,4.6692321,410.06634)">
          <g
             clip-path="url(#clipPath2620)"
             id="g7928">
            <path
               id="path7864"
               style="fill:#c8c7c5;fill-opacity:1;fill-rule:nonzero;stroke:none"
               d="m 1545.95,10457.2 c -11.79,4.6 -23.63,8.8 -35.6,12.7 l 5.37,69.7 v 0 c 0,116 -110.88,210 -226.8,210 -116.01,0 -226.8,-94 -226.8,-210 l 5.14,-66.8 c -0.83,-0.2 -1.62,-0.5 -2.45,-0.8 -27.18,104.7 -44.91,282.1 130.18,322.5 32.06,23.8 73.49,40.2 118.45,40.2 31.91,0 65.61,-8.3 98.98,-27.9 74.6,-43.9 88.45,-58.6 121.37,-58.6 2.67,0 5.47,0.1 8.44,0.2 3.89,0.3 7.79,0.7 11.39,0.7 8.09,0 14.59,-1.8 15.68,-10.5 5.17,-41.1 -2.25,-76.4 -19.12,-105 15.26,-62.4 6.56,-129.2 -4.23,-176.4" />
            <path
               id="path7866"
               style="fill:#9484ad;fill-opacity:1;fill-rule:nonzero;stroke:none"
               d="m 926.621,9149.1 c -56.961,32.34 -109.133,72.18 -155.141,118.16 -0.238,38.21 -0.007,76.33 0.864,113.05 16.691,184.91 46.355,357.32 72.355,509.47 7.352,43.01 37.168,66.25 82.942,84.7 -32.633,-17.47 -53.055,-40.04 -59.465,-77.56 -25.836,-151.19 59.765,-217.75 61.492,-217.75 0.012,0 0.02,0.01 0.023,0.01 0,0 2.129,-202.91 2.301,-413.09 -1.062,-6.83 -2.152,-13.84 -3.269,-21.04 -0.754,-32.7 -1.453,-64.89 -2.102,-95.95 m 716.839,0.89 c -0.82,244.31 2.17,529.19 2.17,529.19 0,0 0.01,-0.01 0.02,-0.01 1.74,0.01 87.33,66.56 61.5,217.75 -13.57,79.37 -89.85,91.84 -211.71,130.68 l 0.21,6.3 -84.83,43.7 -0.02,-0.1 v 0.1 h -22.3 v 71.2 c 56.68,38.8 107.64,102.9 110.55,169.8 0.01,0.3 0.02,0.5 0.03,0.8 0,0.1 0.01,0.2 0.01,0.4 0.02,0.5 0.04,1.1 0.05,1.6 0.03,1.1 0.04,2.2 0.04,3.2 v 0 c 23.05,0.2 41.7,18.9 41.7,42 v 43.7 0 c 0,19.7 -13.65,36.1 -31.99,40.6 l 1.46,19 c 11.97,-3.9 23.81,-8.1 35.6,-12.7 -1.01,-4.4 -2.04,-8.7 -3.08,-12.7 10.85,-7.6 18.01,-20 18.01,-34.2 v -43.7 c 0,-23.1 -18.65,-41.8 -41.7,-42 0,-5.6 -0.43,-11.2 -1.1,-16.8 -0.94,-7.9 -2.47,-15.7 -4.63,-23.5 l -0.08,-0.3 c -15.17,-53.9 -58.08,-103.1 -104.87,-135.1 v -71.3 h 22.3 v -0.1 l 0.03,0.1 84.82,-43.7 -0.21,-6.2 c 87.37,-27.88 151.33,-42.4 185.47,-77.58 l 0.08,0.09 c 85.42,-80.63 176.67,-183.85 232.62,-297.74 24.94,-50.77 31.87,-93.87 29.16,-129.29 -2.47,-6.53 -5.04,-13.05 -7.71,-19.52 -13.19,-31.94 -28.6,-62.74 -46.04,-92.19 -0.9,-0.79 -1.78,-1.53 -2.64,-2.23 -30.34,-24.69 -110.16,-28.44 -173.34,-28.44 -27.6,0 -52.02,0.72 -67.75,0.72 h -1.69 c -0.27,-70.67 -0.39,-146.74 -0.18,-219.71 -6.58,-4.04 -13.24,-7.99 -19.96,-11.82 m 22.17,529.19 c 0,0 -0.54,-51.22 -1.09,-128.79 25.8,-2.02 56.62,-4.17 80.93,-4.17 19.78,0 35.27,1.42 40.25,5.48 0.56,0.45 9.53,9.01 -13.02,34.1 -35.17,39.13 -68.96,68.39 -103.16,96.26 -2.27,-1.93 -3.68,-2.89 -3.89,-2.89 -0.01,0 -0.02,0.01 -0.02,0.01 m -565.28,355.12 64.12,33 v -16.3 l -9.11,-3.9 0.19,-6.5 -3,12.1 c -18.14,-6.8 -35.55,-12.9 -52.2,-18.4 m -32.04,424.8 c -1.17,4.2 -2.35,8.5 -3.5,12.9 0.83,0.3 1.62,0.6 2.45,0.8 l 1.05,-13.7" />
            <path
               id="path7868"
               style="fill:#2d2b35;fill-opacity:1;fill-rule:nonzero;stroke:none"
               d="m 1164.47,9973.09 h 246.332 v 104.48 H 1164.47 Z" />
            <path
               id="path7870"
               style="fill:#f1a461;fill-opacity:1;fill-rule:nonzero;stroke:none"
               d="m 1419.91,10046.2 -31.41,14.5 v 99.9 h -201.6 v -99.9 l -31.54,-13.6 8.39,-283.21 h 23.15 v -43.42 h 201.6 v 43.42 h 23.01 l 8.4,282.31" />
            <path
               id="path7872"
               style="fill:#d36c3b;fill-opacity:1;fill-rule:nonzero;stroke:none"
               d="m 1388.5,10067.3 -201.6,46.4 v 36.8 c 34.91,-24.4 72.23,-39.3 101.98,-39.3 v 0 c 0.01,0 0.01,0 0.02,0 0,0 0.01,0 0.02,0 29.06,0 65.36,14.2 99.58,37.6 v -81.5" />
            <path
               id="path7874"
               style="fill:#ffffff;fill-opacity:1;fill-rule:nonzero;stroke:none"
               d="m 1152.56,10045.6 7.5,-28.2 c 12.96,-37.12 46.19,-97.85 125.1,-97.85 89.03,0 122.99,77.32 133.53,110.85 l 4.04,15.2 c 163.97,-61.66 113.66,-575.16 113.66,-575.16 l 1.03,-426.5 -250.18,-0.05 -263.6,0.05 6.86,426.5 c 0,0 -41.902,513.5 122.06,575.16" />
            <path
               id="path7876"
               style="fill:#94231e;fill-opacity:1;fill-rule:nonzero;stroke:none"
               d="m 1239.14,9933.43 19.35,-37.07 h 58.89 l 18.8,37.07 -48.52,39.66 -48.52,-39.66" />
            <path
               id="path7878"
               style="fill:#e9eae9;fill-opacity:1;fill-rule:nonzero;stroke:none"
               d="m 1287.65,9973.09 62,-65.28 106.01,126.49 -66.16,32.9 -24.88,-23 -76.97,-71.11" />
            <path
               id="path7880"
               style="fill:#e9eae9;fill-opacity:1;fill-rule:nonzero;stroke:none"
               d="m 1185.76,10067.2 101.89,-94.1 -62,-65.32 -105.99,126.52 66.1,32.9" />
            <path
               id="path7882"
               style="fill:#94231e;fill-opacity:1;fill-rule:nonzero;stroke:none"
               d="m 1258.49,9887.5 -23.97,-771.78 53.14,-58.74 53.14,58.74 -23.42,771.78 h -58.89" />
            <path
               id="path7884"
               style="fill:#2d2b35;fill-opacity:1;fill-rule:nonzero;stroke:none"
               d="m 868.176,9896.92 c 16.09,94.14 120.406,94.17 284.374,155.78 l 135.11,-546.85 135.11,546.85 c 163.97,-61.61 268.29,-61.64 284.38,-155.78 26,-152.15 -60.86,-218.59 -61.52,-217.74 0,0 -7.09,-675.3 3.55,-838.1 l -336.32,-0.04 -25.2,117.59 -25.2,-117.59 -336.319,0.04 c 10.636,162.8 3.55,838.1 3.55,838.1 -0.664,-0.85 -87.515,65.59 -61.515,217.74" />
            <path
               id="path7886"
               style="fill:#484547;fill-opacity:1;fill-rule:nonzero;stroke:none"
               d="m 1495.65,10033.9 -3.28,-96.29 -48.1,-39.57 37.43,-51.17 -192.77,-341.02 121.89,571.75 84.83,-43.7" />
            <path
               id="path7888"
               style="fill:#484547;fill-opacity:1;fill-rule:nonzero;stroke:none"
               d="m 1079.66,10033.9 3.29,-96.29 48.1,-39.57 -37.43,-51.17 192.77,-341.02 -121.89,571.75 -84.84,-43.7" />
            <path
               id="path7890"
               style="fill:#605f6e;fill-opacity:1;fill-rule:nonzero;stroke:none"
               d="m 1573.26,9386.94 v 254.61 c 0,27.62 -22.38,50 -50,50 h -101.6 c -27.61,0 -50,-22.38 -50,-50 v -254.61 c 0,-27.61 22.39,-50 50,-50 h 101.6 c 27.62,0 50,22.39 50,50" />
            <path
               id="path7892"
               style="fill:#4b4855;fill-opacity:1;fill-rule:nonzero;stroke:none"
               d="m 1392.79,9347.57 c -12.75,9.58 -21.13,24.69 -21.13,41.87 v 249.61 c 0,29 23.51,52.5 52.5,52.5 h 96.6 c 17.18,0 32.3,-8.37 41.87,-21.13 -8.77,6.59 -19.55,10.63 -31.37,10.63 h -96.6 c -28.99,0 -52.5,-23.5 -52.5,-52.5 v -249.61 c 0,-11.82 4.05,-22.6 10.63,-31.37" />
            <path
               id="path7894"
               style="fill:#33303e;fill-opacity:1;fill-rule:nonzero;stroke:none"
               d="m 1488.59,9646.05 v 1.54 c 0,8.45 -6.91,15.36 -15.36,15.36 h -1.53 c -8.45,0 -15.36,-6.91 -15.36,-15.36 v -1.54 c 0,-8.44 6.91,-15.36 15.36,-15.36 h 1.53 c 8.45,0 15.36,6.92 15.36,15.36" />
            <path
               id="path7896"
               style="fill:#2d2b35;fill-opacity:1;fill-rule:nonzero;stroke:none"
               d="m 1057.81,10021.3 c -127.642,-39.86 -219.408,-51.35 -233.111,-131.53 -26,-152.14 -55.664,-324.55 -72.355,-509.46 -5.699,-241.05 16.101,-541.53 16.101,-541.53 h 132.059 c 0.742,1.25 3.285,192.52 8.219,406.27 24.187,155.73 35.632,224.54 36.293,225.39 l 141.744,450.74 c -2.17,4.54 -17.45,72.43 -28.95,100.12" />
            <path
               id="path7898"
               style="fill:#f1a461;fill-opacity:1;fill-rule:nonzero;stroke:none"
               d="m 1530.53,9544.14 c 0,0 39.54,-4.4 70.24,-6.67 7.64,-0.46 15.27,-0.92 22.43,-1.36 7.08,-0.21 13.69,-0.41 19.35,-0.59 11.15,0.05 18.59,0.08 18.59,0.08 l 2.93,-125.97 c 0,0 -9.31,-0.04 -23.28,-0.1 -6.82,0.21 -14.77,0.45 -23.29,0.71 -8.34,0.51 -17.25,1.04 -26.15,1.58 -35.28,2.63 -77.53,7.44 -77.53,7.44 -27.13,3.55 -43.82,35.16 -38.07,69.33 5.81,34.44 30.4,58.73 54.78,55.55" />
            <path
               id="path7900"
               style="fill:#f1a461;fill-opacity:1;fill-rule:nonzero;stroke:none"
               d="m 1572.45,9576.72 c 20.83,-2.36 37,-17.12 49.18,-31.82 11.97,-14.45 19.8,-28.94 20.41,-30.14 4.87,-9.14 3.74,-22.47 -3.24,-29.37 -6.93,-6.82 -16.89,-4.98 -21.63,4.52 -0.1,0.19 -1.53,2.93 -4.03,6.96 -2.5,4.03 -6.05,9.34 -10.41,14.68 -8.76,10.81 -20.56,21.78 -34.81,23.41 -8.23,0.93 -13.74,11.01 -12.31,22.52 1.44,11.51 8.97,20.13 16.84,19.24" />
            <path
               id="path7902"
               style="fill:#2d2b35;fill-opacity:1;fill-rule:nonzero;stroke:none"
               d="m 1645.29,9381.52 c 51.72,0 197.5,-7.76 241.09,27.72 30.62,24.94 94.58,106.13 27.23,243.23 -55.95,113.89 -147.2,217.11 -232.62,297.74 l -150.36,-167.99 c 79.27,-74.84 147.56,-113.51 222.07,-196.42 22.55,-25.09 13.58,-33.65 13.02,-34.1 -11.92,-9.71 -83.93,-4.31 -131.17,-0.51 l -12.1,-167.52 c 15.6,-1.25 6.54,-2.15 22.84,-2.15" />
            <path
               id="path7904"
               style="fill:#f1a461;fill-opacity:1;fill-rule:nonzero;stroke:none"
               d="m 1508.89,10450.9 6.83,88.7 c 0,116 -110.88,210 -226.8,210 -116.01,0 -226.8,-94 -226.8,-210 l 6.81,-88.6 c -6.48,-1.6 -12.34,-4.5 -17.23,-8.7 -9.07,-7.8 -14.78,-19.2 -14.78,-32 v -43.7 c 0,-23.1 18.59,-41.8 41.74,-42 0,-109.5 131.62,-213.4 210.26,-213.4 78.64,0 210.26,103.9 210.26,213.4 23.05,0.2 41.7,18.9 41.7,42 v 43.7 c 0,19.7 -13.65,36.1 -31.99,40.6" />
            <path
               id="path7906"
               style="fill:#ce582f;fill-opacity:1;fill-rule:nonzero;stroke:none"
               d="m 1288.88,10111.2 v 0 c 0.01,0 0.01,0 0.02,0 -0.01,0 -0.01,0 -0.02,0" />
            <path
               id="path7908"
               style="fill:#8e6c84;fill-opacity:1;fill-rule:nonzero;stroke:none"
               d="m 1499.05,10318.6 c 0.01,0.3 0.02,0.5 0.03,0.8 -0.01,-0.3 -0.02,-0.5 -0.03,-0.8 m 0.04,1.2 c 0.02,0.5 0.04,1.1 0.05,1.6 -0.01,-0.5 -0.03,-1.1 -0.05,-1.6" />
            <path
               id="path7910"
               style="fill:#ed8449;fill-opacity:1;fill-rule:nonzero;stroke:none"
               d="m 1288.9,10111.2 c -0.01,0 -0.01,0 -0.02,0 v 163.8 h -50.4 c 0,0 19.76,94.5 50.4,159.6 l 0.04,315 c 115.92,0 226.8,-94 226.8,-210 l -6.83,-88.7 v 0 c 18.34,-4.5 31.99,-20.9 31.99,-40.6 v -43.7 c 0,-23.1 -18.65,-41.8 -41.7,-42 v 0 c 0,-1 -0.01,-2.1 -0.04,-3.2 -0.01,-0.5 -0.03,-1.1 -0.05,-1.6 0,-0.2 -0.01,-0.3 -0.01,-0.4 -0.01,-0.3 -0.02,-0.5 -0.03,-0.8 -4.66,-107.3 -132.88,-207.3 -210.15,-207.4 m 96.61,331.2 c -0.4,0 -0.79,0 -1.18,0 -18.32,-0.6 -32.64,-16 -32,-34.3 0.62,-17.9 15.34,-32 33.13,-32 0.39,0 0.78,0 1.18,0 18.31,0.7 32.64,16 32,34.3 -0.63,17.9 -15.35,32 -33.13,32" />
            <path
               id="path7912"
               style="fill:#ed8449;fill-opacity:1;fill-rule:nonzero;stroke:none"
               d="m 1192.26,10376.1 c -17.79,0 -32.51,14.1 -33.13,32 -0.64,18.3 13.68,33.7 31.99,34.3 0.4,0 0.79,0 1.18,0 17.79,0 32.51,-14.1 33.14,-32 0.63,-18.3 -13.69,-33.6 -32,-34.3 -0.39,0 -0.79,0 -1.18,0" />
            <path
               id="path7914"
               style="fill:#352018;fill-opacity:1;fill-rule:nonzero;stroke:none"
               d="m 1225.44,10418.8 c 0.64,-18.3 -13.69,-33.7 -32,-34.3 -18.31,-0.6 -33.67,13.7 -34.31,32 -0.64,18.3 13.68,33.7 31.99,34.3 18.31,0.6 33.68,-13.7 34.32,-32" />
            <path
               id="path7916"
               style="fill:#ffffff;fill-opacity:1;fill-rule:nonzero;stroke:none"
               d="m 1211.83,10411.5 c 0.16,-4.6 -3.42,-8.4 -8,-8.6 -4.57,-0.1 -8.41,3.4 -8.57,8 -0.16,4.6 3.42,8.4 7.99,8.6 4.58,0.2 8.42,-3.4 8.58,-8" />
            <path
               id="path7918"
               style="fill:#e66939;fill-opacity:1;fill-rule:nonzero;stroke:none"
               d="m 1385.46,10376.1 c -17.79,0 -32.51,14.1 -33.13,32 -0.64,18.3 13.68,33.7 32,34.3 0.39,0 0.78,0 1.18,0 17.78,0 32.5,-14.1 33.13,-32 0.64,-18.3 -13.69,-33.6 -32,-34.3 -0.4,0 -0.79,0 -1.18,0" />
            <path
               id="path7920"
               style="fill:#352018;fill-opacity:1;fill-rule:nonzero;stroke:none"
               d="m 1418.64,10418.8 c 0.64,-18.3 -13.69,-33.7 -32,-34.3 -18.31,-0.6 -33.67,13.7 -34.31,32 -0.64,18.3 13.68,33.7 31.99,34.3 18.31,0.6 33.68,-13.7 34.32,-32" />
            <path
               id="path7922"
               style="fill:#ffffff;fill-opacity:1;fill-rule:nonzero;stroke:none"
               d="m 1405.03,10411.5 c 0.16,-4.6 -3.42,-8.4 -8,-8.6 -4.57,-0.1 -8.41,3.4 -8.57,8 -0.16,4.6 3.42,8.4 7.99,8.6 4.58,0.2 8.42,-3.4 8.58,-8" />
            <path
               id="path7924"
               style="fill:#352018;fill-opacity:1;fill-rule:nonzero;stroke:none"
               d="m 1549.3,10738.6 c -1.58,12.6 -14.41,10.7 -27.07,9.8 -39.5,-2.4 -49.16,10.9 -129.81,58.4 -80.38,47.3 -162.62,28.4 -217.43,-12.3 -252.115,-58.2 -104.44,-400.4 -104.44,-400.4 0,0 -0.93,180.1 77.04,234.9 130.57,-89.1 263.99,-93.9 339.95,-41 29.31,-68.3 19.74,-193.9 19.74,-193.9 0,0 50.43,127 22.9,239.5 16.87,28.6 24.29,63.9 19.12,105" />
            <path
               id="path7926"
               style="fill:#352018;fill-opacity:1;fill-rule:nonzero;stroke:none"
               d="m 1415.43,10352 c -60.7,0 -79.74,31.9 -89.65,79.7 -2.28,11.1 2.41,16.2 8.35,23.5 8.39,10.3 26.97,18.3 81.3,18.3 78.74,0 78.74,-30.6 78.74,-43.5 0,-40.5 -9.54,-78 -78.74,-78 z m -163.94,79.7 c -9.91,-47.8 -28.95,-79.7 -89.65,-79.7 -69.2,0 -78.74,37.5 -78.74,78 0,12.9 0,43.5 78.74,43.5 54.33,0 72.91,-8 81.31,-18.3 5.93,-7.3 10.63,-12.4 8.34,-23.5 z m 272.35,54.7 h -45.79 c -14.37,7.5 -34.47,12.3 -62.62,12.3 -46.7,0 -78.43,-8.9 -94.76,-26.3 -7.72,4.2 -19.13,8.9 -32.03,8.9 -12.9,0 -24.32,-4.7 -32.03,-8.9 -16.34,17.4 -48.06,26.3 -94.77,26.3 -28.14,0 -48.25,-4.8 -62.62,-12.3 h -45.78 v -32.7 l 15.02,-5.3 c -1.54,-6.1 -2.16,-12.4 -2.16,-18.4 0,-40.7 9.9,-94.8 95.54,-94.8 76.5,0 96.56,47.1 106.1,93.1 1.45,7 1.6,13.6 0.63,19.9 3.74,2.4 9.89,4.5 20.07,4.5 10.17,0 16.33,-2.1 20.06,-4.5 -0.97,-6.3 -0.81,-12.9 0.63,-19.9 9.54,-46 29.6,-93.1 106.1,-93.1 85.64,0 95.54,54.1 95.54,94.8 0,6 -0.62,12.3 -2.16,18.4 l 15.03,5.3 v 32.7" />
          </g>
        </g>
      </g>
    </clipPath>
    <clipPath
       id="clipPath2620"
       clipPathUnits="userSpaceOnUse">
      <path
         id="path2618"
         d="m 1771.7,10317.7 c 49.3,83.9 77.69,181.6 77.69,285.9 0,312.1 -253.02,565.1 -565.13,565.1 -312.115,0 -565.131,-253 -565.131,-565.1 0,-104.3 28.391,-202 77.691,-285.9 -146.203,-132.7 -238.007,-324.27 -238.007,-537.28 0,-400.66 324.792,-725.46 725.457,-725.46 400.65,0 725.45,324.8 725.45,725.46 0,213.01 -91.81,404.58 -238.02,537.28" />
    </clipPath>
    <clipPath
       id="clipPath498"
       clipPathUnits="userSpaceOnUse">
      <path
         id="path496"
         d="m 3676.82,2537.14 c 49.3,83.88 77.7,181.53 77.7,285.87 0,312.11 -253.02,565.13 -565.14,565.13 -312.11,0 -565.13,-253.02 -565.13,-565.13 0,-104.34 28.39,-201.99 77.7,-285.87 -146.21,-132.72 -238.01,-324.29 -238.01,-537.34 0,-400.6 324.79,-725.4 725.45,-725.4 400.66,0 725.45,324.8 725.45,725.4 0,213.06 -91.81,404.62 -238.02,537.34" />
    </clipPath>
    <clipPath
       id="clipPath1590"
       clipPathUnits="userSpaceOnUse">
      <path
         id="path1588"
         d="m 5581.17,10308.1 c 49.3,83.9 77.69,181.5 77.69,285.9 0,312.1 -253.02,565.1 -565.13,565.1 -312.11,0 -565.13,-253 -565.13,-565.1 0,-104.4 28.39,-202 77.69,-285.9 -146.2,-132.7 -238.01,-324.28 -238.01,-537.29 0,-400.66 324.8,-725.46 725.46,-725.46 400.65,0 725.45,324.8 725.45,725.46 0,213.01 -91.81,404.59 -238.02,537.29" />
    </clipPath>
  </defs>
  <sodipodi:namedview
     inkscape:window-maximized="1"
     inkscape:window-y="27"
     inkscape:window-x="0"
     inkscape:window-height="713"
     inkscape:window-width="1366"
     showgrid="false"
     inkscape:document-rotation="0"
     inkscape:current-layer="layer1"
     inkscape:document-units="mm"
     inkscape:cy="662.283"
     inkscape:cx="522.605"
     inkscape:zoom="0.35"
     inkscape:pageshadow="2"
     inkscape:pageopacity="0.0"
     borderopacity="1.0"
     bordercolor="#666666"
     pagecolor="#ffffff"
     id="base" />
  <metadata
     id="metadata6285">
    <rdf:RDF>
      <cc:Work
         rdf:about="">
        <dc:format>image/svg+xml</dc:format>
        <dc:type
           rdf:resource="http://purl.org/dc/dcmitype/StillImage" />
        <dc:title></dc:title>
      </cc:Work>
    </rdf:RDF>
  </metadata>
  <g
     id="layer1"
     inkscape:groupmode="layer"
     inkscape:label="Слой 1">
    <g
       id="g1584"
       transform="matrix(0.15387542,0,0,-0.15387542,-672.73251,1699.688)">
      <g
         clip-path="url(#clipPath1590)"
         id="g1586">
        <path
           id="path1592"
           style="fill:#c8c7c5;fill-opacity:1;fill-rule:nonzero;stroke:none"
           d="m 5369.46,10442 c -12.94,5.3 -26.01,10.3 -39.18,14.8 l 2.62,23.4 c 0.07,2 0.11,4.1 0.11,6.1 0.16,113.2 -105.63,207.7 -219.44,211.7 -2.51,0.1 -5.03,0.1 -7.54,0.1 -113.29,0 -222.49,-88.7 -226.45,-202.1 l 1.32,-31.5 c -0.53,-0.2 -1.1,-0.3 -1.62,-0.5 -9.35,76.7 -2.13,150.1 25.17,208.6 0,0 53.45,127.4 220.33,127.4 3.95,0 7.97,-0.1 12.05,-0.2 3.7,0 7.23,-0.1 10.75,-0.2 47.6,-1.7 80.87,-11.8 112.55,-28.9 0,0 28.29,-15 60.96,-15 11.58,0 23.72,1.9 35.33,7 0.28,0.1 0.56,0.2 0.83,0.2 1.18,0 2.22,-1 2.04,-2.3 -0.96,-5.9 -3.9,-17.8 -12.85,-28.6 3.52,-0.3 7.18,-0.5 11,-0.5 8.48,0 17.76,0.8 28.08,2.6 l 0.5,0.1 -0.02,-0.6 c 0.06,-29.6 -11.1,-55.5 -26.13,-76.9 23.63,-61.6 25.3,-137.1 9.59,-214.7" />
        <path
           id="path1594"
           style="fill:#5b67aa;fill-opacity:1;fill-rule:nonzero;stroke:none"
           d="m 5093.74,9045.35 c -2.72,0 -5.39,0.02 -8.1,0.05 -0.09,0 -0.15,0 -0.24,0 -0.22,0 -0.45,0.01 -0.67,0.01 -0.28,0 -0.49,0.01 -0.76,0.01 -0.02,0 -0.03,0 -0.06,0 -90.58,1.21 -180.93,19.29 -266.03,54.22 -178.83,73.59 -321.79,216.56 -395.34,395.4 -3.6,8.75 -7.02,17.59 -10.26,26.45 l 285.1,354.92 0.82,1.01 0.65,0.83 0.02,-0.07 c 42.17,51.51 123.11,73.73 232.39,109.74 5.21,2.3 15.36,6.77 26.63,11.73 l 8.34,-281.15 h 23.14 v -43.42 h 201.6 v 43.42 h 23.01 l 8.4,282.3 -31.41,14.5 v 78 c 60.18,37.8 115.47,103.1 117.9,172.6 v 0 c 0.39,-0.1 0.79,-0.1 1.19,-0.1 22.52,0 41.16,17.9 41.95,40.5 l 1.52,43.7 c 0.02,0.5 0.03,0.9 0.03,1.4 0.05,19.1 -12.83,35.3 -30.57,40.4 l 7.29,65 c 13.17,-4.5 26.24,-9.5 39.18,-14.8 -2.57,-12.7 -5.61,-25.5 -9.1,-38.2 -1.79,-6.6 -3.69,-12.3 -5.67,-17.5 8.65,-5.7 15.05,-14.5 17.63,-24.7 -1.38,-2.9 -2.5,-6 -3.33,-9.2 l -0.61,-2.3 c -0.01,-0.1 -0.01,-0.1 -0.02,-0.1 l -20.72,-80.3 c -5.36,-2.5 -11.32,-3.9 -17.58,-3.9 -0.4,0 -0.8,0 -1.2,0.1 -0.16,-4.9 -0.67,-9.6 -1.33,-14.4 -0.43,-3.1 -0.94,-6.1 -1.56,-9.2 -12.27,-60.4 -61.69,-115.5 -115,-148.9 v -72.5 l 1.03,0.9 c 0,0 61.48,-27.03 77.13,-33.92 63.21,-20.83 116.89,-37.12 159.08,-57.04 l -35.57,94.96 c -5.52,-2.1 -11.42,-3.2 -17.47,-3.2 -3.26,0 -6.56,0.3 -9.86,1 18.11,3.7 33.45,17.4 38.38,36.5 l 67.3,260.8 c 6.9,26.8 -9.18,54 -35.92,61 l -2.14,0.5 c -0.09,0 -0.19,0.1 -0.28,0.1 l -17.26,4.4 -5.5,1.5 c -0.84,0.2 -1.68,0.4 -2.51,0.5 3.25,0.7 6.6,1 9.99,1 4.13,0 8.33,-0.5 12.52,-1.5 l 2.42,-0.7 v 0 l 20.34,-5.2 v 0 l 2.42,-0.6 c 26.74,-7 42.82,-34.2 35.92,-61 l -18.04,-69.9 0.46,-0.9 23.86,-94.1 7.05,2.6 202.52,-540.42 c 11.31,-30.19 2.24,-64.23 -22.6,-84.78 -13.89,-11.5 -31,-17.36 -48.21,-17.36 -13.55,0 -27.17,3.65 -39.31,11.04 l -164.56,82 c -1.78,-84.64 -7.31,-324.26 -15.86,-477.91 -21.33,-11.45 -43.34,-21.88 -65.87,-31.18 -85.6,-35.27 -176.58,-53.46 -267.73,-54.58 -0.19,0 -0.38,-0.01 -0.58,-0.01 -0.09,0 -0.23,0 -0.32,0 -2.69,-0.03 -5.37,-0.05 -8.06,-0.05 m -326.18,589.77 -189.94,-168.87 190.07,-215.26 -1.19,-2.01 c 3.92,-0.81 7.97,-1.8 12.11,-3 -6.54,165.14 -10.42,356.56 -11.05,389.14 m 114.08,811.68 c -0.88,5.8 -1.67,11.5 -2.36,17.2 0.52,0.2 1.09,0.3 1.62,0.5 l 0.74,-17.7" />
        <path
           id="path1596"
           style="fill:#f1a461;fill-opacity:1;fill-rule:nonzero;stroke:none"
           d="m 5222.38,10000.8 -31.41,14.5 v 99.9 h -201.6 v -99.9 l -31.54,-13.6 8.4,-283.2 h 23.14 v -43.42 h 201.6 v 43.42 h 23.01 l 8.4,282.3" />
        <path
           id="path1598"
           style="fill:#625b84;fill-opacity:1;fill-rule:nonzero;stroke:none"
           d="m 4989.37,10066.1 h -0.05 v 37.7 c 0.02,0 0.03,0 0.05,0 v -37.7" />
        <path
           id="path1600"
           style="fill:#d36c3b;fill-opacity:1;fill-rule:nonzero;stroke:none"
           d="m 5190.92,10023.8 -201.55,42.3 v 37.7 c 34.42,-26.2 71.79,-42.8 101.92,-43.9 1.06,0 2.14,0 3.22,0 28.18,0 63.04,12.5 96.41,33.4 v -69.5" />
        <path
           id="path1602"
           style="fill:#ffffff;fill-opacity:1;fill-rule:nonzero;stroke:none"
           d="m 4660.78,9849.36 c 36.96,80.55 140.7,100.46 289.38,151.64 5.29,1.8 10.67,3.7 16.04,5.6 l 0.17,-0.8 c 9.79,-55.4 37.59,-127.06 123.75,-135.47 86.17,8.41 113.96,80.07 123.75,135.47 l 0.17,0.8 c 5.38,-1.9 10.75,-3.8 16.05,-5.6 148.68,-51.18 252.42,-71.09 289.38,-151.64 46.3,-102.64 -86.69,-209.33 -86.69,-209.33 0,0 -12.01,-644.95 -32.09,-644.95 H 5090.1 4779.55 c -20.07,0 -32.08,644.95 -32.08,644.95 0,0 -132.99,106.69 -86.69,209.33" />
        <path
           id="path1604"
           style="fill:#f1453b;fill-opacity:1;fill-rule:nonzero;stroke:none"
           d="m 5041.62,9888.04 19.35,-37.07 h 58.89 l 18.8,37.07 -48.52,39.66 -48.52,-39.66" />
        <path
           id="path1606"
           style="fill:#e9eae9;fill-opacity:1;fill-rule:nonzero;stroke:none"
           d="m 5090.14,9927.7 62,-65.28 120.59,123.87 -80.73,35.51 -24.89,-22.98 -76.97,-71.12" />
        <path
           id="path1608"
           style="fill:#e9eae9;fill-opacity:1;fill-rule:nonzero;stroke:none"
           d="m 5090.14,9927.7 -62,-65.28 -120.59,123.87 80.73,35.51 24.89,-22.98 76.97,-71.12" />
        <path
           id="path1610"
           style="fill:#f1453b;fill-opacity:1;fill-rule:nonzero;stroke:none"
           d="m 5060.97,9842.11 -23.97,-771.78 53.14,-58.74 53.14,58.74 -23.42,771.78 h -58.89" />
        <path
           id="path1612"
           style="fill:#484547;fill-opacity:1;fill-rule:nonzero;stroke:none"
           d="m 5423.69,10060.1 67.3,260.8 c 6.9,26.8 -9.18,54 -35.92,61 l -25.18,6.5 c -26.74,6.9 -54.01,-9.2 -60.9,-36 l -67.3,-260.8 c -6.9,-26.8 9.18,-54 35.92,-60.9 l 25.17,-6.5 c 26.74,-6.9 54.01,9.2 60.91,35.9" />
        <path
           id="path1614"
           style="fill:#5b67aa;fill-opacity:1;fill-rule:nonzero;stroke:none"
           d="m 5302.18,10093.5 c 0.04,0.2 0.08,0.3 0.13,0.5 l 45.33,175.7 v 0 l -45.46,-176.2" />
        <path
           id="path1616"
           style="fill:#465083;fill-opacity:1;fill-rule:nonzero;stroke:none"
           d="m 5347.64,10269.7 20.72,80.3 c 0.01,0 0.01,0 0.02,0.1 l -20.74,-80.4 v 0 m 105.29,112.7 -17.54,4.5 17.26,-4.4 c 0.09,0 0.19,-0.1 0.28,-0.1" />
        <path
           id="path1618"
           style="fill:#383636;fill-opacity:1;fill-rule:nonzero;stroke:none"
           d="m 5322.12,10038.6 c -16.64,12.3 -25.19,33.7 -19.94,54.9 l 45.46,176.2 20.74,80.4 c 6.12,23.6 27.43,39.3 50.78,39.3 4.34,0 8.75,-0.5 13.15,-1.7 l 3.08,-0.8 17.54,-4.5 c 11.72,-3.1 21.29,-10 28.12,-19 -5.24,3.9 -11.23,6.9 -17.9,8.6 l -20.34,5.2 c -4.4,1.2 -8.81,1.7 -13.15,1.7 -23.37,0 -44.69,-15.7 -50.8,-39.4 l -66.05,-256 c -4.19,-16.2 -0.13,-32.5 9.31,-44.9" />
        <path
           id="path1620"
           style="fill:#33303e;fill-opacity:1;fill-rule:nonzero;stroke:none"
           d="m 5438.92,10331 3.36,13 c 1.38,5.3 -1.88,10.9 -7.24,12.3 -5.37,1.3 -10.9,-1.9 -12.28,-7.3 l -3.36,-13 c -1.39,-5.4 1.87,-10.9 7.24,-12.3 5.37,-1.4 10.9,1.9 12.28,7.3" />
        <path
           id="path1622"
           style="fill:#f1a461;fill-opacity:1;fill-rule:nonzero;stroke:none"
           d="m 5313.42,10172.3 77.19,-105.2 117.99,44.2 -35.19,138.8 c -10.28,27.4 -61.82,39.7 -94.4,27.5 -32.59,-12.2 -75.87,-77.9 -65.59,-105.3" />
        <path
           id="path1624"
           style="fill:#ffffff;fill-opacity:1;fill-rule:nonzero;stroke:none"
           d="m 5636.03,9516.05 c 17.21,0 34.32,5.85 48.21,17.35 24.84,20.55 33.91,54.59 22.6,84.78 l -202.52,540.42 -141.58,-53 125.73,-335.55 -40.57,24.7 -78.65,-154.33 227.47,-113.34 c 12.14,-7.39 25.76,-11.03 39.31,-11.03" />
        <path
           id="path1626"
           style="fill:#f1a461;fill-opacity:1;fill-rule:nonzero;stroke:none"
           d="m 4807.58,9175.07 -131.5,100.26 -76.39,-100.2 131.49,-100.26 c 25.99,-19.81 38.96,-13.44 60.06,14.23 21.09,27.67 42.33,66.16 16.34,85.97" />
        <path
           id="path1628"
           style="fill:#f1a461;fill-opacity:1;fill-rule:nonzero;stroke:none"
           d="m 4804.55,9223.16 c -45.87,34.97 -101.06,29.21 -103.82,28.38 -10.87,-3.26 -17.59,-14.72 -15.03,-25.58 2.57,-10.85 13.41,-17 24.26,-13.77 0.22,0.06 2.77,0.13 6.93,-0.16 4.16,-0.29 9.95,-0.95 16.65,-2.33 13.39,-2.77 30.45,-8.44 45.55,-19.94 8.66,-6.61 21.38,-4.49 28.41,4.74 7.04,9.22 5.71,22.05 -2.95,28.66" />
        <path
           id="path1630"
           style="fill:#ffffff;fill-opacity:1;fill-rule:nonzero;stroke:none"
           d="m 4661.72,9106.5 85.97,144.49 -190.07,215.25 200.62,178.38 -79.39,233.63 -296.7,-369.37 c -22.85,-29.18 -21.18,-70.62 3.93,-97.87 l 275.64,-304.51" />
        <path
           id="path1632"
           style="fill:#f1a461;fill-opacity:1;fill-rule:nonzero;stroke:none"
           d="m 5322.99,10391.8 9.91,88.4 c 4.05,115.9 -103.48,213.7 -219.33,217.8 -115.93,4 -229.95,-86.1 -233.99,-202 l 3.72,-88.8 c -6.54,-1.3 -12.5,-4.1 -17.53,-8.1 -9.34,-7.4 -15.44,-18.7 -15.89,-31.5 l -1.53,-43.7 c -0.8,-23 17.13,-42.4 40.25,-43.3 -3.82,-109.5 124.1,-217.9 202.69,-220.7 78.59,-2.7 213.75,96.5 217.58,206 23.04,-0.7 42.33,17.4 43.14,40.4 l 1.52,43.7 c 0.69,19.7 -12.38,36.6 -30.54,41.8" />
        <path
           id="path1634"
           style="fill:#ec8349;fill-opacity:1;fill-rule:nonzero;stroke:none"
           d="m 5094.46,10059.9 c -1.08,0 -2.15,0 -3.21,0 l 6.31,180.5 -50.38,1.8 c 0,0 23.05,93.7 55.95,157.7 l 10.44,298.1 c 113.81,-4 219.6,-98.5 219.44,-211.7 0,-2 -0.04,-4.1 -0.11,-6.1 l -9.91,-88.4 v 0 c 17.74,-5.1 30.62,-21.3 30.57,-40.4 0,-0.5 -0.01,-0.9 -0.03,-1.4 l -1.52,-43.7 c -0.79,-22.6 -19.43,-40.5 -41.95,-40.5 -0.4,0 -0.8,0 -1.19,0.1 v 0 c -3.78,-108 -135.35,-206 -214.41,-206 m 104.28,344.4 c -18.32,0 -33.17,-14.9 -33.17,-33.2 0,-18.3 14.85,-33.2 33.17,-33.2 18.32,0 33.17,14.9 33.17,33.2 0,18.3 -14.85,33.2 -33.17,33.2" />
        <path
           id="path1636"
           style="fill:#d36c3b;fill-opacity:1;fill-rule:nonzero;stroke:none"
           d="m 5005.66,10344.7 c -18.33,0 -33.18,14.8 -33.18,33.2 0,18.3 14.85,33.1 33.18,33.1 18.32,0 33.17,-14.8 33.17,-33.1 0,-18.4 -14.85,-33.2 -33.17,-33.2" />
        <path
           id="path1638"
           style="fill:#352018;fill-opacity:1;fill-rule:nonzero;stroke:none"
           d="m 5039.12,10386.3 c 0,-18.4 -14.85,-33.2 -33.17,-33.2 -18.32,0 -33.17,14.8 -33.17,33.2 0,18.3 14.85,33.1 33.17,33.1 18.32,0 33.17,-14.8 33.17,-33.1" />
        <path
           id="path1640"
           style="fill:#ffffff;fill-opacity:1;fill-rule:nonzero;stroke:none"
           d="m 5025.86,10396.2 c 0,-4.6 -3.71,-8.3 -8.29,-8.3 -4.58,0 -8.3,3.7 -8.3,8.3 0,4.6 3.72,8.3 8.3,8.3 4.58,0 8.29,-3.7 8.29,-8.3" />
        <path
           id="path1642"
           style="fill:#ce572f;fill-opacity:1;fill-rule:nonzero;stroke:none"
           d="m 5198.74,10337.9 c -18.32,0 -33.17,14.9 -33.17,33.2 0,18.3 14.85,33.2 33.17,33.2 18.32,0 33.17,-14.9 33.17,-33.2 0,-18.3 -14.85,-33.2 -33.17,-33.2" />
        <path
           id="path1644"
           style="fill:#352018;fill-opacity:1;fill-rule:nonzero;stroke:none"
           d="m 5232.21,10379.5 c 0,-18.3 -14.86,-33.2 -33.18,-33.2 -18.32,0 -33.17,14.9 -33.17,33.2 0,18.3 14.85,33.2 33.17,33.2 18.32,0 33.18,-14.9 33.18,-33.2" />
        <path
           id="path1646"
           style="fill:#ffffff;fill-opacity:1;fill-rule:nonzero;stroke:none"
           d="m 5218.94,10389.5 c 0,-4.6 -3.71,-8.3 -8.29,-8.3 -4.58,0 -8.29,3.7 -8.29,8.3 0,4.5 3.71,8.3 8.29,8.3 4.58,0 8.29,-3.8 8.29,-8.3" />
        <path
           id="path1648"
           style="fill:#f0453b;fill-opacity:1;fill-rule:nonzero;stroke:none"
           d="m 5170.28,10192.6 c -1.3,-37.1 -36.18,-66 -77.9,-64.5 -41.73,1.4 -74.51,32.7 -73.21,69.8 l 151.11,-5.3" />
        <path
           id="path1650"
           style="fill:#ffffff;fill-opacity:1;fill-rule:nonzero;stroke:none"
           d="m 5145.98,10168.2 -105.93,3.7 c -5.52,0.2 -9.84,4.8 -9.65,10.4 l 0.53,15.1 125.93,-4.3 -0.53,-15.2 c -0.2,-5.6 -4.83,-9.9 -10.35,-9.7" />
        <path
           id="path1652"
           style="fill:#352018;fill-opacity:1;fill-rule:nonzero;stroke:none"
           d="m 5340.36,10403.8 c -7.9,-29 -17.48,-41 -29.65,-69.3 l 2.17,81.3 -42.03,144.2 c 0,0 -75.11,-13.4 -162.88,-14.1 -87.43,6.8 -161.42,25.4 -161.42,25.4 l -52.74,-140.9 -2.84,-81.2 c -4.97,14.1 -21.69,56 -24.66,71.1 -18.38,92.3 -14.3,182.7 18.14,252.3 0,0 56.01,133.5 232.38,127.2 3.7,0 7.23,-0.1 10.75,-0.2 47.6,-1.7 80.87,-11.8 112.55,-28.9 0,0 51.91,-27.4 96.29,-8 1.46,0.6 3.1,-0.5 2.87,-2.1 -0.96,-5.8 -3.9,-17.8 -12.85,-28.6 11.32,-0.9 24.11,-0.5 39.08,2.1 l 0.5,0.1 -0.02,-0.6 c 0.06,-29.6 -11.1,-55.5 -26.13,-76.9 27.5,-71.7 25.26,-162.2 0.49,-252.9" />
      </g>
    </g>
  </g>
</svg>
